G04*
G04 #@! TF.GenerationSoftware,Altium Limited,Altium Designer,20.0.13 (296)*
G04*
G04 Layer_Color=32768*
%FSLAX44Y44*%
%MOMM*%
G71*
G01*
G75*
%ADD10C,0.5000*%
%ADD16C,0.2540*%
%ADD92C,1.0160*%
%ADD93C,0.1524*%
D10*
X-203338Y-312673D02*
X-207004Y-309007D01*
X-214335D01*
X-218000Y-312673D01*
Y-316338D01*
X-214335Y-320004D01*
X-207004D01*
X-203338Y-323669D01*
Y-327335D01*
X-207004Y-331000D01*
X-214335D01*
X-218000Y-327335D01*
X-181345Y-316338D02*
X-192342D01*
X-196007Y-320004D01*
Y-327335D01*
X-192342Y-331000D01*
X-181345D01*
X-170349Y-316338D02*
X-163018D01*
X-159352Y-320004D01*
Y-331000D01*
X-170349D01*
X-174014Y-327335D01*
X-170349Y-323669D01*
X-159352D01*
X-152021Y-331000D02*
X-144690D01*
X-148356D01*
Y-309007D01*
X-152021D01*
X-122697Y-331000D02*
X-130028D01*
X-133694Y-327335D01*
Y-320004D01*
X-130028Y-316338D01*
X-122697D01*
X-119032Y-320004D01*
Y-323669D01*
X-133694D01*
X-111701Y-316338D02*
X-108035D01*
Y-320004D01*
X-111701D01*
Y-316338D01*
Y-327335D02*
X-108035D01*
Y-331000D01*
X-111701D01*
Y-327335D01*
X-71381Y-331000D02*
X-64050D01*
X-67715D01*
Y-309007D01*
X-71381Y-312673D01*
X-53053Y-316338D02*
X-49388D01*
Y-320004D01*
X-53053D01*
Y-316338D01*
Y-327335D02*
X-49388D01*
Y-331000D01*
X-53053D01*
Y-327335D01*
X-34726Y-331000D02*
X-27395D01*
X-31060D01*
Y-309007D01*
X-34726Y-312673D01*
X-223000Y-258007D02*
Y-276334D01*
X-219335Y-280000D01*
X-212004D01*
X-208338Y-276334D01*
Y-258007D01*
X-201007Y-280000D02*
Y-265338D01*
X-190011D01*
X-186345Y-269004D01*
Y-280000D01*
X-179014D02*
X-171683D01*
X-175349D01*
Y-265338D01*
X-179014D01*
X-157021Y-261673D02*
Y-265338D01*
X-160687D01*
X-153356D01*
X-157021D01*
Y-276334D01*
X-153356Y-280000D01*
X-142359D02*
X-131363D01*
X-127697Y-276334D01*
X-131363Y-272669D01*
X-138694D01*
X-142359Y-269004D01*
X-138694Y-265338D01*
X-127697D01*
X-120366D02*
X-116701D01*
Y-269004D01*
X-120366D01*
Y-265338D01*
Y-276334D02*
X-116701D01*
Y-280000D01*
X-120366D01*
Y-276334D01*
X-80046Y-280000D02*
Y-258007D01*
X-72715Y-265338D01*
X-65384Y-258007D01*
Y-280000D01*
X-58053D02*
X-50722D01*
X-54388D01*
Y-265338D01*
X-58053D01*
X-39726Y-280000D02*
X-32395D01*
X-36060D01*
Y-258007D01*
X-39726D01*
X-21398Y-280000D02*
X-10402D01*
X-6737Y-276334D01*
X-10402Y-272669D01*
X-17733D01*
X-21398Y-269004D01*
X-17733Y-265338D01*
X-6737D01*
X193000Y624331D02*
Y646324D01*
X200331Y638993D01*
X207662Y646324D01*
Y624331D01*
X225989D02*
X218658D01*
X214993Y627996D01*
Y635327D01*
X218658Y638993D01*
X225989D01*
X229655Y635327D01*
Y631662D01*
X214993D01*
X251648Y638993D02*
X240651D01*
X236986Y635327D01*
Y627996D01*
X240651Y624331D01*
X251648D01*
X258979Y646324D02*
Y624331D01*
Y635327D01*
X262644Y638993D01*
X269975D01*
X273641Y635327D01*
Y624331D01*
X284637Y638993D02*
X291968D01*
X295634Y635327D01*
Y624331D01*
X284637D01*
X280972Y627996D01*
X284637Y631662D01*
X295634D01*
X302964Y624331D02*
Y638993D01*
X313961D01*
X317626Y635327D01*
Y624331D01*
X324957D02*
X332288D01*
X328623D01*
Y638993D01*
X324957D01*
X357947D02*
X346950D01*
X343285Y635327D01*
Y627996D01*
X346950Y624331D01*
X357947D01*
X368943Y638993D02*
X376274D01*
X379940Y635327D01*
Y624331D01*
X368943D01*
X365278Y627996D01*
X368943Y631662D01*
X379940D01*
X387271Y624331D02*
X394602D01*
X390936D01*
Y646324D01*
X387271D01*
X427591D02*
Y624331D01*
X438587D01*
X442253Y627996D01*
Y642658D01*
X438587Y646324D01*
X427591D01*
X449584Y638993D02*
Y624331D01*
Y631662D01*
X453249Y635327D01*
X456915Y638993D01*
X460580D01*
X475242D02*
X482573D01*
X486239Y635327D01*
Y624331D01*
X475242D01*
X471577Y627996D01*
X475242Y631662D01*
X486239D01*
X493570Y638993D02*
Y627996D01*
X497235Y624331D01*
X500900Y627996D01*
X504566Y624331D01*
X508232Y627996D01*
Y638993D01*
X515563Y624331D02*
X522893D01*
X519228D01*
Y638993D01*
X515563D01*
X533890Y624331D02*
Y638993D01*
X544886D01*
X548552Y635327D01*
Y624331D01*
X563214Y617000D02*
X566879D01*
X570545Y620666D01*
Y638993D01*
X559548D01*
X555883Y635327D01*
Y627996D01*
X559548Y624331D01*
X570545D01*
D16*
X-94000Y1282D02*
X-88920Y-13958D01*
X-99080D02*
X-94000Y1282D01*
X-99080Y91440D02*
X-94000Y76200D01*
X-88920Y91440D01*
X-94000Y-24118D02*
Y1282D01*
Y76200D02*
Y101600D01*
X-96540Y76200D02*
X619860D01*
X-96540Y1282D02*
X-7851D01*
X-35080Y16522D02*
X-30000Y1282D01*
X-24920Y16522D01*
X-30000Y161000D02*
X-24920Y145760D01*
X-35080D02*
X-30000Y161000D01*
Y1282D02*
Y33656D01*
Y120498D02*
Y161000D01*
X-32540Y1282D02*
X-7851D01*
X-32540Y161000D02*
X5000D01*
X-13240Y-3798D02*
X2000Y1282D01*
X-13240Y6362D02*
X2000Y1282D01*
X17240Y6362D01*
X2000Y1282D02*
X17240Y-3798D01*
X-23400Y1282D02*
X2000D01*
X27400D01*
X-540D02*
X7389D01*
X-540D02*
X7389D01*
X-231Y-172000D02*
X15009Y-166920D01*
X-231Y-172000D02*
X15009Y-177080D01*
X658074D02*
X673314Y-172000D01*
X658074Y-166920D02*
X673314Y-172000D01*
X-231D02*
X280169D01*
X384786D02*
X673314D01*
X-231Y-174540D02*
Y-6338D01*
X673314Y-174540D02*
Y80694D01*
X-231Y-76000D02*
X15009Y-70920D01*
X-231Y-76000D02*
X15009Y-81080D01*
X136074D02*
X151314Y-76000D01*
X136074Y-70920D02*
X151314Y-76000D01*
X-231D02*
X25517D01*
X117438D02*
X151314D01*
X-231Y-78540D02*
Y-6338D01*
X151314Y-78540D02*
Y28694D01*
X-231Y-36000D02*
X15009Y-30920D01*
X-231Y-36000D02*
X15009Y-41080D01*
X668529D02*
X683769Y-36000D01*
X668529Y-30920D02*
X683769Y-36000D01*
X-231D02*
X286666D01*
X388744D02*
X683769D01*
X-231Y-38540D02*
Y-6338D01*
X683769Y-38540D02*
Y-6338D01*
X-65080Y16522D02*
X-60000Y1282D01*
X-54920Y16522D01*
X-60000Y532282D02*
X-54920Y517042D01*
X-65080D02*
X-60000Y532282D01*
Y1282D02*
Y233262D01*
Y292174D02*
Y532282D01*
X-62540Y1282D02*
X-7851D01*
X-62540Y532282D02*
X-7851D01*
D92*
X678000Y355000D02*
G03*
X678000Y355000I-16000J0D01*
G01*
Y77000D02*
G03*
X678000Y77000I-16000J0D01*
G01*
X156000Y25000D02*
G03*
X156000Y25000I-16000J0D01*
G01*
X168400Y508000D02*
G03*
X168400Y508000I-16000J0D01*
G01*
X-231Y1282D02*
X683769D01*
Y533282D01*
X682769Y532282D02*
X683769Y533282D01*
X-231Y532282D02*
X682769D01*
X-231D02*
X-231Y1282D01*
D93*
X-84859Y-103342D02*
Y-113499D01*
X-95015Y-103342D01*
X-97554D01*
X-100093Y-105882D01*
Y-110960D01*
X-97554Y-113499D01*
X-87398Y-98264D02*
X-84859Y-95725D01*
Y-90646D01*
X-87398Y-88107D01*
X-97554D01*
X-100093Y-90646D01*
Y-95725D01*
X-97554Y-98264D01*
X-95015D01*
X-92476Y-95725D01*
Y-88107D01*
X-84859Y-75412D02*
X-100093D01*
X-92476Y-83029D01*
Y-72872D01*
X-84859Y-67794D02*
X-87398D01*
Y-65255D01*
X-84859D01*
Y-67794D01*
X-87398Y-55098D02*
X-84859Y-52559D01*
Y-47481D01*
X-87398Y-44941D01*
X-97554D01*
X-100093Y-47481D01*
Y-52559D01*
X-97554Y-55098D01*
X-95015D01*
X-92476Y-52559D01*
Y-44941D01*
X-100093Y-29706D02*
Y-39863D01*
X-92476D01*
X-95015Y-34785D01*
Y-32245D01*
X-92476Y-29706D01*
X-87398D01*
X-84859Y-32245D01*
Y-37324D01*
X-87398Y-39863D01*
X-36093Y47876D02*
X-33554Y42798D01*
X-28476Y37720D01*
X-23398D01*
X-20859Y40259D01*
Y45337D01*
X-23398Y47876D01*
X-25937D01*
X-28476Y45337D01*
Y37720D01*
X-20859Y63111D02*
Y52955D01*
X-31015Y63111D01*
X-33554D01*
X-36093Y60572D01*
Y55494D01*
X-33554Y52955D01*
Y68190D02*
X-36093Y70729D01*
Y75807D01*
X-33554Y78347D01*
X-31015D01*
X-28476Y75807D01*
X-25937Y78347D01*
X-23398D01*
X-20859Y75807D01*
Y70729D01*
X-23398Y68190D01*
X-25937D01*
X-28476Y70729D01*
X-31015Y68190D01*
X-33554D01*
X-28476Y70729D02*
Y75807D01*
X-20859Y83425D02*
X-23398D01*
Y85964D01*
X-20859D01*
Y83425D01*
X-33554Y96121D02*
X-36093Y98660D01*
Y103738D01*
X-33554Y106277D01*
X-31015D01*
X-28476Y103738D01*
X-25937Y106277D01*
X-23398D01*
X-20859Y103738D01*
Y98660D01*
X-23398Y96121D01*
X-25937D01*
X-28476Y98660D01*
X-31015Y96121D01*
X-33554D01*
X-28476Y98660D02*
Y103738D01*
X-20859Y111356D02*
Y116434D01*
Y113895D01*
X-36093D01*
X-33554Y111356D01*
X-28725Y-22589D02*
X-26186Y-20049D01*
X-21108D01*
X-18569Y-22589D01*
Y-32745D01*
X-21108Y-35284D01*
X-26186D01*
X-28725Y-32745D01*
Y-22589D01*
X-13490Y-35284D02*
Y-32745D01*
X-10951D01*
Y-35284D01*
X-13490D01*
X-794Y-22589D02*
X1745Y-20049D01*
X6823D01*
X9362Y-22589D01*
Y-32745D01*
X6823Y-35284D01*
X1745D01*
X-794Y-32745D01*
Y-22589D01*
X14441D02*
X16980Y-20049D01*
X22058D01*
X24597Y-22589D01*
Y-32745D01*
X22058Y-35284D01*
X16980D01*
X14441Y-32745D01*
Y-22589D01*
X294390Y-181141D02*
X284233D01*
X294390Y-170985D01*
Y-168446D01*
X291850Y-165907D01*
X286772D01*
X284233Y-168446D01*
X309625Y-165907D02*
X304546Y-168446D01*
X299468Y-173524D01*
Y-178602D01*
X302007Y-181141D01*
X307085D01*
X309625Y-178602D01*
Y-176063D01*
X307085Y-173524D01*
X299468D01*
X324860Y-165907D02*
X314703D01*
Y-173524D01*
X319781Y-170985D01*
X322321D01*
X324860Y-173524D01*
Y-178602D01*
X322321Y-181141D01*
X317242D01*
X314703Y-178602D01*
X329938Y-181141D02*
X335017D01*
X332477D01*
Y-165907D01*
X329938Y-168446D01*
X342634Y-181141D02*
Y-178602D01*
X345173D01*
Y-181141D01*
X342634D01*
X355330Y-165907D02*
X365487D01*
Y-168446D01*
X355330Y-178602D01*
Y-181141D01*
X380722Y-165907D02*
X370565D01*
Y-173524D01*
X375643Y-170985D01*
X378182D01*
X380722Y-173524D01*
Y-178602D01*
X378182Y-181141D01*
X373104D01*
X370565Y-178602D01*
X39738Y-69907D02*
X29581D01*
Y-77524D01*
X34659Y-74985D01*
X37198D01*
X39738Y-77524D01*
Y-82602D01*
X37198Y-85141D01*
X32120D01*
X29581Y-82602D01*
X44816D02*
X47355Y-85141D01*
X52434D01*
X54973Y-82602D01*
Y-72446D01*
X52434Y-69907D01*
X47355D01*
X44816Y-72446D01*
Y-74985D01*
X47355Y-77524D01*
X54973D01*
X70208Y-69907D02*
X65129Y-72446D01*
X60051Y-77524D01*
Y-82602D01*
X62590Y-85141D01*
X67669D01*
X70208Y-82602D01*
Y-80063D01*
X67669Y-77524D01*
X60051D01*
X75286Y-85141D02*
Y-82602D01*
X77825D01*
Y-85141D01*
X75286D01*
X98139Y-69907D02*
X93060Y-72446D01*
X87982Y-77524D01*
Y-82602D01*
X90521Y-85141D01*
X95599D01*
X98139Y-82602D01*
Y-80063D01*
X95599Y-77524D01*
X87982D01*
X103217Y-72446D02*
X105756Y-69907D01*
X110835D01*
X113374Y-72446D01*
Y-74985D01*
X110835Y-77524D01*
X108295D01*
X110835D01*
X113374Y-80063D01*
Y-82602D01*
X110835Y-85141D01*
X105756D01*
X103217Y-82602D01*
X300887Y-45142D02*
X290730D01*
X300887Y-34985D01*
Y-32446D01*
X298348Y-29906D01*
X293269D01*
X290730Y-32446D01*
X316122Y-29906D02*
X311044Y-32446D01*
X305965Y-37524D01*
Y-42602D01*
X308504Y-45142D01*
X313583D01*
X316122Y-42602D01*
Y-40063D01*
X313583Y-37524D01*
X305965D01*
X321200Y-42602D02*
X323740Y-45142D01*
X328818D01*
X331357Y-42602D01*
Y-32446D01*
X328818Y-29906D01*
X323740D01*
X321200Y-32446D01*
Y-34985D01*
X323740Y-37524D01*
X331357D01*
X346592Y-45142D02*
X336435D01*
X346592Y-34985D01*
Y-32446D01*
X344053Y-29906D01*
X338975D01*
X336435Y-32446D01*
X351670Y-45142D02*
Y-42602D01*
X354210D01*
Y-45142D01*
X351670D01*
X364366Y-42602D02*
X366906Y-45142D01*
X371984D01*
X374523Y-42602D01*
Y-32446D01*
X371984Y-29906D01*
X366906D01*
X364366Y-32446D01*
Y-34985D01*
X366906Y-37524D01*
X374523D01*
X379601Y-45142D02*
X384680D01*
X382141D01*
Y-29906D01*
X379601Y-32446D01*
X-50858Y247483D02*
Y237326D01*
X-61015Y247483D01*
X-63554D01*
X-66094Y244944D01*
Y239865D01*
X-63554Y237326D01*
Y252561D02*
X-66094Y255100D01*
Y260179D01*
X-63554Y262718D01*
X-53398D01*
X-50858Y260179D01*
Y255100D01*
X-53398Y252561D01*
X-63554D01*
X-53398Y267796D02*
X-50858Y270335D01*
Y275414D01*
X-53398Y277953D01*
X-63554D01*
X-66094Y275414D01*
Y270335D01*
X-63554Y267796D01*
X-61015D01*
X-58476Y270335D01*
Y277953D01*
X-50858Y283031D02*
Y288109D01*
Y285570D01*
X-66094D01*
X-63554Y283031D01*
M02*
