G04*
G04 #@! TF.GenerationSoftware,Altium Limited,Altium Designer,20.0.13 (296)*
G04*
G04 Layer_Color=8388736*
%FSLAX44Y44*%
%MOMM*%
G71*
G01*
G75*
%ADD39R,2.1000X2.1000*%
%ADD40R,1.6000X1.8000*%
%ADD41R,1.4500X0.5000*%
%ADD42R,0.9000X1.5000*%
%ADD43R,1.6200X0.6700*%
%ADD44R,0.6700X1.6200*%
%ADD45R,0.8858X0.7588*%
%ADD46R,0.7588X0.8858*%
%ADD47R,1.0000X1.0000*%
%ADD48R,1.2000X0.7500*%
%ADD49R,1.5000X0.9000*%
%ADD50R,1.5000X1.1000*%
%ADD51R,1.1000X0.8000*%
%ADD52R,1.1000X1.5000*%
%ADD53C,3.0480*%
%ADD54R,1.8000X3.2000*%
%ADD55R,2.9000X2.2000*%
%ADD56R,0.7500X1.2000*%
%ADD57R,2.8000X2.7000*%
%ADD58R,3.7000X2.4000*%
%ADD59R,0.8000X2.4000*%
%ADD60R,2.7000X2.8000*%
%ADD61C,3.4000*%
%ADD62C,1.9000*%
%ADD63R,1.9000X1.9000*%
%ADD64C,2.1000*%
%ADD65R,2.1000X2.1000*%
%ADD66C,4.2000*%
G04:AMPARAMS|DCode=67|XSize=2.2mm|YSize=1.4mm|CornerRadius=0.46mm|HoleSize=0mm|Usage=FLASHONLY|Rotation=0.000|XOffset=0mm|YOffset=0mm|HoleType=Round|Shape=RoundedRectangle|*
%AMROUNDEDRECTD67*
21,1,2.2000,0.4800,0,0,0.0*
21,1,1.2800,1.4000,0,0,0.0*
1,1,0.9200,0.6400,-0.2400*
1,1,0.9200,-0.6400,-0.2400*
1,1,0.9200,-0.6400,0.2400*
1,1,0.9200,0.6400,0.2400*
%
%ADD67ROUNDEDRECTD67*%
%ADD68O,1.8000X2.2000*%
%ADD69R,1.8000X2.2000*%
%ADD70O,2.2000X1.8000*%
%ADD71R,2.2000X1.8000*%
%ADD72C,7.6000*%
%ADD73R,1.4000X2.7000*%
%ADD74O,1.4000X2.7000*%
%ADD75C,0.8000*%
D39*
X21995Y189000D02*
D03*
Y213000D02*
D03*
X241500Y78500D02*
D03*
D40*
X46495Y169000D02*
D03*
Y233000D02*
D03*
D41*
X48745Y188000D02*
D03*
Y194500D02*
D03*
Y201000D02*
D03*
Y207500D02*
D03*
Y214000D02*
D03*
D42*
X279500Y414000D02*
D03*
X298500D02*
D03*
X283500Y89000D02*
D03*
X264500D02*
D03*
X280500Y393000D02*
D03*
X299500D02*
D03*
X92500Y348000D02*
D03*
X73500D02*
D03*
X112500Y211000D02*
D03*
X93500D02*
D03*
X86500Y191000D02*
D03*
X105500D02*
D03*
Y171000D02*
D03*
X86500D02*
D03*
X378500Y99000D02*
D03*
X359500D02*
D03*
X620500Y227000D02*
D03*
X601500D02*
D03*
X265500Y454000D02*
D03*
X246500D02*
D03*
X405500Y232000D02*
D03*
X424500D02*
D03*
X586500Y351000D02*
D03*
X567500D02*
D03*
X13500Y253000D02*
D03*
X32500D02*
D03*
X149500Y214000D02*
D03*
X130500D02*
D03*
D43*
X196000Y272000D02*
D03*
Y280000D02*
D03*
Y288000D02*
D03*
Y296000D02*
D03*
Y304000D02*
D03*
Y312000D02*
D03*
Y320000D02*
D03*
Y328000D02*
D03*
X112000D02*
D03*
Y320000D02*
D03*
Y312000D02*
D03*
Y304000D02*
D03*
Y296000D02*
D03*
Y288000D02*
D03*
Y280000D02*
D03*
Y272000D02*
D03*
D44*
X182000Y342000D02*
D03*
X174000D02*
D03*
X166000D02*
D03*
X158000D02*
D03*
X150000D02*
D03*
X142000D02*
D03*
X134000D02*
D03*
X126000D02*
D03*
Y258000D02*
D03*
X134000D02*
D03*
X142000D02*
D03*
X150000D02*
D03*
X158000D02*
D03*
X166000D02*
D03*
X174000D02*
D03*
X182000D02*
D03*
D45*
X12000Y269808D02*
D03*
Y294192D02*
D03*
D46*
X598808Y243000D02*
D03*
X623192D02*
D03*
D47*
X571000Y370000D02*
D03*
X587000D02*
D03*
X266000Y434000D02*
D03*
X250000D02*
D03*
X247000Y413000D02*
D03*
X263000D02*
D03*
Y393000D02*
D03*
X247000D02*
D03*
D48*
X205500Y158500D02*
D03*
Y149000D02*
D03*
Y139500D02*
D03*
X232500Y158500D02*
D03*
Y139500D02*
D03*
X203500Y435500D02*
D03*
Y454500D02*
D03*
X176500Y435500D02*
D03*
Y445000D02*
D03*
Y454500D02*
D03*
D49*
X255000Y158500D02*
D03*
Y139500D02*
D03*
X267000Y69500D02*
D03*
Y50500D02*
D03*
X172000Y384500D02*
D03*
Y403500D02*
D03*
X90000Y258500D02*
D03*
Y277500D02*
D03*
X218000Y263500D02*
D03*
Y282500D02*
D03*
X613000Y479000D02*
D03*
Y460000D02*
D03*
X592000Y459500D02*
D03*
Y478500D02*
D03*
X638000Y433500D02*
D03*
Y414500D02*
D03*
X670000Y207500D02*
D03*
Y188500D02*
D03*
X30000Y274000D02*
D03*
Y293000D02*
D03*
X670000Y223500D02*
D03*
Y242500D02*
D03*
X649000Y223000D02*
D03*
Y242000D02*
D03*
X328000Y85500D02*
D03*
Y66500D02*
D03*
Y47500D02*
D03*
Y66500D02*
D03*
D50*
X233000Y119500D02*
D03*
Y100500D02*
D03*
X219000Y197500D02*
D03*
Y178500D02*
D03*
X218000Y215500D02*
D03*
Y234500D02*
D03*
X196000Y215500D02*
D03*
Y234500D02*
D03*
X218000Y299500D02*
D03*
Y318500D02*
D03*
X173000Y217500D02*
D03*
Y236500D02*
D03*
X23000Y451500D02*
D03*
Y432500D02*
D03*
X637000Y472500D02*
D03*
Y453500D02*
D03*
X115000Y134500D02*
D03*
Y115500D02*
D03*
X210000Y100500D02*
D03*
Y119500D02*
D03*
X305000Y47500D02*
D03*
Y66500D02*
D03*
X354000D02*
D03*
Y47500D02*
D03*
X223000Y454500D02*
D03*
Y435500D02*
D03*
X650000Y206000D02*
D03*
Y187000D02*
D03*
X197000Y178500D02*
D03*
Y197500D02*
D03*
X442000Y58500D02*
D03*
Y77500D02*
D03*
D51*
X72000Y206500D02*
D03*
Y221500D02*
D03*
X71000Y179500D02*
D03*
Y194500D02*
D03*
D52*
X128500Y234000D02*
D03*
X147500D02*
D03*
X240500Y348000D02*
D03*
X259500D02*
D03*
Y241000D02*
D03*
X240500D02*
D03*
X403500Y51000D02*
D03*
X384500D02*
D03*
X23500Y522000D02*
D03*
X42500D02*
D03*
X463500Y77000D02*
D03*
X482500D02*
D03*
X466500Y233000D02*
D03*
X447500D02*
D03*
X260500Y484000D02*
D03*
X241500D02*
D03*
X417500Y79000D02*
D03*
X398500D02*
D03*
Y99000D02*
D03*
X417500D02*
D03*
X460000D02*
D03*
X441000D02*
D03*
X404500Y256000D02*
D03*
X423500D02*
D03*
X466500D02*
D03*
X447500D02*
D03*
X651500Y126000D02*
D03*
X670500D02*
D03*
X49500Y294000D02*
D03*
X68500D02*
D03*
X108500Y232000D02*
D03*
X89500D02*
D03*
X568500Y329000D02*
D03*
X587500D02*
D03*
X482500Y55000D02*
D03*
X463500D02*
D03*
D53*
X668000Y19000D02*
D03*
X107000Y517000D02*
D03*
X668000Y509000D02*
D03*
X219000Y44000D02*
D03*
D54*
X72000Y19500D02*
D03*
Y60500D02*
D03*
X74000Y98500D02*
D03*
Y139500D02*
D03*
D55*
X22000Y63000D02*
D03*
Y95000D02*
D03*
D56*
X651500Y143500D02*
D03*
X670500D02*
D03*
X651500Y170500D02*
D03*
X661000D02*
D03*
X670500D02*
D03*
X48500Y249500D02*
D03*
X58000D02*
D03*
X67500D02*
D03*
X48500Y276500D02*
D03*
X67500D02*
D03*
D57*
X250000Y318500D02*
D03*
Y269500D02*
D03*
D58*
X163000Y177000D02*
D03*
D59*
X188400Y115000D02*
D03*
X175700D02*
D03*
X163000D02*
D03*
X150300D02*
D03*
X137600D02*
D03*
D60*
X411500Y287000D02*
D03*
X460500D02*
D03*
D61*
X152400Y508000D02*
D03*
D62*
X25400Y316600D02*
D03*
X50800D02*
D03*
X25400Y342000D02*
D03*
X76200Y497840D02*
D03*
X50800D02*
D03*
X25400D02*
D03*
X76200Y472440D02*
D03*
X50800D02*
D03*
Y386080D02*
D03*
X76200D02*
D03*
X25400Y411480D02*
D03*
X50800D02*
D03*
X76200D02*
D03*
D63*
X50800Y342000D02*
D03*
X25400Y472440D02*
D03*
Y386080D02*
D03*
D64*
X607500Y262500D02*
D03*
Y307500D02*
D03*
X672500D02*
D03*
X196500Y78500D02*
D03*
Y13500D02*
D03*
X241500D02*
D03*
D65*
X672500Y262500D02*
D03*
D66*
X22000Y134000D02*
D03*
X21000Y26000D02*
D03*
D67*
X21995Y168000D02*
D03*
Y234000D02*
D03*
D68*
X457200Y508000D02*
D03*
X482600D02*
D03*
X508000D02*
D03*
X533400D02*
D03*
X558800D02*
D03*
X584200D02*
D03*
X609600D02*
D03*
X141600Y88000D02*
D03*
X167000D02*
D03*
X187960Y508000D02*
D03*
X213360D02*
D03*
X238760D02*
D03*
X264160D02*
D03*
X289560D02*
D03*
X314960D02*
D03*
X340360D02*
D03*
X365760D02*
D03*
X391160D02*
D03*
X524200Y23000D02*
D03*
X549600D02*
D03*
X575000D02*
D03*
X600400D02*
D03*
X625800D02*
D03*
X457200D02*
D03*
X431800D02*
D03*
X406400D02*
D03*
X381000D02*
D03*
X355600D02*
D03*
X330200D02*
D03*
X304800D02*
D03*
D69*
X635000Y508000D02*
D03*
X116200Y88000D02*
D03*
X416560Y508000D02*
D03*
X498800Y23000D02*
D03*
X279400D02*
D03*
D70*
X146000Y369800D02*
D03*
Y395200D02*
D03*
Y420600D02*
D03*
X662000Y443600D02*
D03*
Y418200D02*
D03*
D71*
X146000Y446000D02*
D03*
X662000Y469000D02*
D03*
D72*
X139700Y25400D02*
D03*
X660400Y76200D02*
D03*
Y355600D02*
D03*
D73*
X620650Y203200D02*
D03*
D74*
X595250D02*
D03*
X569850D02*
D03*
X544450D02*
D03*
X519050D02*
D03*
X493650D02*
D03*
X468250D02*
D03*
X442850D02*
D03*
X417450D02*
D03*
X392050D02*
D03*
X366650D02*
D03*
X341250D02*
D03*
X315850D02*
D03*
X290450D02*
D03*
X620650Y127000D02*
D03*
X595250D02*
D03*
X569850D02*
D03*
X544450D02*
D03*
X519050D02*
D03*
X493650D02*
D03*
X468250D02*
D03*
X442850D02*
D03*
X417450D02*
D03*
X392050D02*
D03*
X366650D02*
D03*
X341250D02*
D03*
X315850D02*
D03*
X290550Y127100D02*
D03*
D75*
X59247Y218000D02*
D03*
X569000Y379000D02*
D03*
X406000Y61000D02*
D03*
X110000Y421000D02*
D03*
X60000Y227000D02*
D03*
X91000Y121000D02*
D03*
X8000Y305000D02*
D03*
X473000Y93765D02*
D03*
X482000Y95000D02*
D03*
X83698Y219000D02*
D03*
X236375Y454000D02*
D03*
X83000Y289000D02*
D03*
X401000Y383000D02*
D03*
Y478000D02*
D03*
X79429Y181000D02*
D03*
X446000Y222000D02*
D03*
X478000Y256000D02*
D03*
X395000D02*
D03*
X108500Y245500D02*
D03*
X140000Y224000D02*
D03*
X150000Y275000D02*
D03*
X173000Y208000D02*
D03*
X195000Y207000D02*
D03*
X233000Y198000D02*
D03*
X273000Y246000D02*
D03*
X217000Y249000D02*
D03*
X182000Y288000D02*
D03*
X215000Y339000D02*
D03*
X277000Y343000D02*
D03*
X210000Y445000D02*
D03*
X197000Y420000D02*
D03*
X47000Y446000D02*
D03*
X56000Y522000D02*
D03*
X570000Y388000D02*
D03*
X634000Y191000D02*
D03*
X635000Y176000D02*
D03*
X679000Y126000D02*
D03*
X455000Y110000D02*
D03*
X419000Y61000D02*
D03*
X388000Y86000D02*
D03*
X401000Y110000D02*
D03*
X368000Y67000D02*
D03*
X305000Y88000D02*
D03*
X192000Y139000D02*
D03*
X233000Y130000D02*
D03*
X210000D02*
D03*
X163000Y145000D02*
D03*
X79000Y246000D02*
D03*
X313000Y420000D02*
D03*
X172000Y417000D02*
D03*
X122000Y415000D02*
D03*
X169000Y135000D02*
D03*
X291000Y70000D02*
D03*
X317000Y56000D02*
D03*
X442000Y43000D02*
D03*
X464000Y41000D02*
D03*
X620000Y59000D02*
D03*
X86000Y320000D02*
D03*
Y366000D02*
D03*
X98500Y272000D02*
D03*
X101000Y370000D02*
D03*
X256000Y188000D02*
D03*
X450000Y158000D02*
D03*
X208750Y208250D02*
D03*
X177000Y197000D02*
D03*
X163000Y206000D02*
D03*
X155250Y201250D02*
D03*
X91000Y111000D02*
D03*
X114000Y191000D02*
D03*
X121000Y211000D02*
D03*
X279000Y485000D02*
D03*
X576000Y407000D02*
D03*
X575000Y398000D02*
D03*
X601000Y178000D02*
D03*
X217000Y481000D02*
D03*
X225000Y400000D02*
D03*
X314000Y407000D02*
D03*
X322000Y422000D02*
D03*
X568000Y427000D02*
D03*
X569000Y414000D02*
D03*
X670250Y159250D02*
D03*
X610000Y432000D02*
D03*
X321000Y172000D02*
D03*
X329000Y255000D02*
D03*
X304000Y227000D02*
D03*
Y173000D02*
D03*
M02*
