G04*
G04 #@! TF.GenerationSoftware,Altium Limited,Altium Designer,20.0.13 (296)*
G04*
G04 Layer_Color=65535*
%FSLAX44Y44*%
%MOMM*%
G71*
G01*
G75*
%ADD10C,0.5000*%
%ADD11C,0.2000*%
%ADD12C,0.2100*%
%ADD13C,0.3000*%
%ADD14C,0.1270*%
%ADD15C,0.8000*%
%ADD16C,0.2540*%
%ADD17C,0.1000*%
G36*
X446465Y376323D02*
X446692D01*
Y376095D01*
X446920D01*
Y376323D01*
X447148D01*
Y376095D01*
X447375D01*
Y376323D01*
X447603D01*
Y376095D01*
X448286D01*
Y375867D01*
X448514D01*
Y376095D01*
X448741D01*
Y375867D01*
X448969D01*
Y375639D01*
X449197D01*
Y375867D01*
X449425D01*
Y375639D01*
X450563D01*
Y375412D01*
X450791D01*
Y375639D01*
X451018D01*
Y375412D01*
X451246D01*
Y375184D01*
X451929D01*
Y374956D01*
X452157D01*
Y375184D01*
X452384D01*
Y374956D01*
X452612D01*
Y374729D01*
X453295D01*
Y374501D01*
X453523D01*
Y374729D01*
X453750D01*
Y374501D01*
X453978D01*
Y374273D01*
X454661D01*
Y374046D01*
X454889D01*
Y373818D01*
X455572D01*
Y373590D01*
X455800D01*
Y373363D01*
X456483D01*
Y373135D01*
X456710D01*
Y372907D01*
X457393D01*
Y372679D01*
X457621D01*
Y372452D01*
X458304D01*
Y372224D01*
X458532D01*
Y371996D01*
X458760D01*
Y371769D01*
X458987D01*
Y371541D01*
X459670D01*
Y371313D01*
X459898D01*
Y371086D01*
X460126D01*
Y370858D01*
X460353D01*
Y370630D01*
X461036D01*
Y370403D01*
X461264D01*
Y370175D01*
X461492D01*
Y369947D01*
X461720D01*
Y369720D01*
X461947D01*
Y369492D01*
X462175D01*
Y369264D01*
X462403D01*
Y369036D01*
X462630D01*
Y368809D01*
X463313D01*
Y368581D01*
Y368353D01*
X463769D01*
Y368126D01*
Y367898D01*
X464224D01*
Y367670D01*
Y367443D01*
X464679D01*
Y367215D01*
Y366987D01*
X465135D01*
Y366760D01*
Y366532D01*
X465590D01*
Y366304D01*
Y366077D01*
X465818D01*
Y365849D01*
Y365621D01*
X466046D01*
Y365393D01*
X466273D01*
Y365166D01*
X466501D01*
Y364938D01*
X466729D01*
Y364710D01*
X466956D01*
Y364483D01*
X467184D01*
Y364255D01*
X467412D01*
Y364027D01*
X467184D01*
Y363800D01*
X466956D01*
Y364027D01*
X466729D01*
Y363800D01*
X466501D01*
Y364027D01*
X466273D01*
Y363800D01*
X466046D01*
Y364027D01*
X465818D01*
Y363800D01*
X465590D01*
Y364027D01*
X465363D01*
Y363800D01*
X465135D01*
Y364027D01*
X464907D01*
Y363800D01*
X464679D01*
Y364027D01*
X464452D01*
Y363800D01*
X464224D01*
Y364027D01*
X463996D01*
Y363800D01*
X463769D01*
Y364027D01*
X463541D01*
Y363800D01*
X463313D01*
Y364027D01*
X463086D01*
Y363800D01*
X462858D01*
Y364027D01*
X462630D01*
Y363800D01*
X462403D01*
Y364027D01*
X462175D01*
Y363800D01*
X461947D01*
Y364027D01*
X461720D01*
Y363800D01*
X461492D01*
Y364027D01*
X461264D01*
Y364255D01*
X461036D01*
Y364483D01*
X460809D01*
Y364710D01*
X460581D01*
Y364938D01*
X460353D01*
Y365166D01*
X460126D01*
Y365393D01*
X459898D01*
Y365621D01*
X459670D01*
Y365849D01*
X459443D01*
Y366077D01*
X458987D01*
Y366304D01*
X458532D01*
Y366532D01*
X458304D01*
Y366760D01*
X458077D01*
Y366987D01*
X457849D01*
Y367215D01*
X457166D01*
Y367443D01*
X457393D01*
Y367670D01*
X456710D01*
Y367898D01*
X456483D01*
Y368126D01*
X455800D01*
Y368353D01*
X455572D01*
Y368581D01*
X455344D01*
Y368809D01*
X455117D01*
Y369036D01*
X454889D01*
Y368809D01*
X454661D01*
Y369036D01*
X454434D01*
Y369264D01*
X454206D01*
Y369492D01*
X453523D01*
Y369720D01*
X453295D01*
Y369947D01*
X453068D01*
Y369720D01*
X452840D01*
Y369947D01*
X452612D01*
Y370175D01*
X452384D01*
Y369947D01*
X452157D01*
Y370175D01*
X451929D01*
Y370403D01*
X451246D01*
Y370630D01*
X450563D01*
Y370858D01*
X449880D01*
Y371086D01*
X449652D01*
Y370858D01*
X449425D01*
Y371086D01*
X449197D01*
Y371313D01*
X448969D01*
Y371086D01*
X448741D01*
Y371313D01*
X448058D01*
Y371541D01*
X447831D01*
Y371313D01*
X447603D01*
Y371541D01*
X446920D01*
Y371769D01*
X446692D01*
Y371541D01*
X446465D01*
Y371769D01*
X445326D01*
Y371996D01*
X445098D01*
Y371769D01*
X444871D01*
Y371996D01*
X444643D01*
Y371769D01*
X444415D01*
Y371996D01*
X444188D01*
Y371769D01*
X443960D01*
Y371996D01*
X443732D01*
Y371769D01*
X443505D01*
Y371996D01*
X442822D01*
Y372224D01*
X442594D01*
Y371996D01*
X442822D01*
Y371769D01*
X442594D01*
Y371996D01*
X441911D01*
Y372224D01*
X441683D01*
Y371996D01*
X441911D01*
Y371769D01*
X441683D01*
Y371996D01*
X441455D01*
Y371769D01*
X441228D01*
Y371996D01*
X441000D01*
Y371769D01*
X440772D01*
Y371996D01*
X440545D01*
Y371769D01*
X440317D01*
Y371996D01*
X440089D01*
Y371769D01*
X439862D01*
Y371996D01*
X439634D01*
Y371769D01*
X438495D01*
Y371541D01*
X438268D01*
Y371769D01*
X438040D01*
Y371541D01*
X437812D01*
Y371769D01*
X437585D01*
Y371541D01*
X437357D01*
Y371313D01*
X437129D01*
Y371541D01*
X436902D01*
Y371313D01*
X436219D01*
Y371086D01*
X435991D01*
Y371313D01*
X435763D01*
Y371086D01*
X435536D01*
Y370858D01*
X435308D01*
Y371086D01*
X435080D01*
Y370858D01*
X434397D01*
Y370630D01*
X434169D01*
Y370403D01*
X433942D01*
Y370630D01*
X433714D01*
Y370403D01*
X433031D01*
Y370175D01*
X432803D01*
Y369947D01*
X432120D01*
Y369720D01*
X432348D01*
Y369492D01*
X432576D01*
Y369264D01*
X432803D01*
Y369036D01*
X433031D01*
Y368809D01*
X433259D01*
Y368581D01*
X433486D01*
Y368353D01*
X434169D01*
Y368126D01*
X434397D01*
Y367898D01*
X434625D01*
Y367670D01*
X434852D01*
Y367443D01*
X435536D01*
Y367215D01*
X435763D01*
Y366987D01*
X435991D01*
Y366760D01*
X436219D01*
Y366532D01*
X436446D01*
Y366304D01*
X436674D01*
Y366077D01*
X437357D01*
Y365849D01*
X437585D01*
Y365621D01*
X437812D01*
Y365393D01*
X438040D01*
Y365166D01*
X438268D01*
Y364938D01*
X438495D01*
Y365166D01*
X438723D01*
Y364938D01*
X438951D01*
Y365166D01*
X439179D01*
Y364938D01*
X439406D01*
Y365166D01*
X439634D01*
Y364938D01*
X439862D01*
Y365166D01*
X440089D01*
Y364938D01*
X440317D01*
Y365166D01*
X440545D01*
Y364938D01*
X440772D01*
Y365166D01*
X441000D01*
Y364938D01*
X441228D01*
Y365166D01*
X441455D01*
Y364938D01*
X441683D01*
Y365166D01*
X441911D01*
Y364938D01*
X442138D01*
Y365166D01*
X442366D01*
Y364938D01*
X442594D01*
Y365166D01*
X442822D01*
Y364938D01*
X443049D01*
Y365166D01*
X443277D01*
Y364938D01*
X443505D01*
Y365166D01*
X443732D01*
Y364938D01*
X443960D01*
Y365166D01*
X444188D01*
Y364938D01*
X444415D01*
Y365166D01*
X444643D01*
Y364938D01*
X444871D01*
Y365166D01*
X445098D01*
Y364938D01*
X445326D01*
Y365166D01*
X445554D01*
Y364938D01*
X445782D01*
Y365166D01*
X446009D01*
Y364938D01*
X446237D01*
Y365166D01*
X446465D01*
Y364938D01*
X446692D01*
Y365166D01*
X446920D01*
Y364938D01*
X447148D01*
Y365166D01*
X447375D01*
Y364938D01*
X447603D01*
Y365166D01*
X447831D01*
Y364938D01*
X448058D01*
Y365166D01*
X448286D01*
Y364938D01*
X448514D01*
Y365166D01*
X448741D01*
Y364938D01*
X448969D01*
Y365166D01*
X449197D01*
Y364938D01*
X449425D01*
Y365166D01*
X449652D01*
Y364938D01*
X449880D01*
Y365166D01*
X450335D01*
Y365393D01*
Y365621D01*
X450563D01*
Y365849D01*
X450791D01*
Y366077D01*
X451018D01*
Y366304D01*
X451246D01*
Y366532D01*
X451929D01*
Y366760D01*
X452157D01*
Y366987D01*
X453750D01*
Y366760D01*
X453978D01*
Y366987D01*
X454206D01*
Y366760D01*
X454434D01*
Y366532D01*
X454889D01*
Y366304D01*
Y366077D01*
X455344D01*
Y365849D01*
Y365621D01*
X455800D01*
Y365393D01*
Y365166D01*
X456027D01*
Y364938D01*
Y364710D01*
Y364483D01*
Y364255D01*
Y364027D01*
X456255D01*
Y363800D01*
X456027D01*
Y363572D01*
X456255D01*
Y363344D01*
X456027D01*
Y363117D01*
Y362889D01*
Y362661D01*
X455800D01*
Y362434D01*
X455572D01*
Y362206D01*
X455344D01*
Y361978D01*
X455572D01*
Y361750D01*
X454889D01*
Y361523D01*
X455117D01*
Y361295D01*
X454889D01*
Y361523D01*
X454661D01*
Y361295D01*
X454434D01*
Y361067D01*
X454206D01*
Y360840D01*
X453978D01*
Y361067D01*
X453750D01*
Y360840D01*
X452157D01*
Y361067D01*
X451929D01*
Y361295D01*
X451246D01*
Y361523D01*
X451018D01*
Y361750D01*
X450791D01*
Y361978D01*
X450563D01*
Y362206D01*
X450335D01*
Y362434D01*
Y362661D01*
Y362889D01*
X450107D01*
Y363117D01*
X449880D01*
Y363344D01*
X449652D01*
Y363117D01*
X449425D01*
Y363344D01*
X448741D01*
Y363117D01*
X448514D01*
Y363344D01*
X447831D01*
Y363117D01*
X447603D01*
Y363344D01*
X446920D01*
Y363117D01*
X446692D01*
Y363344D01*
X446009D01*
Y363117D01*
X445782D01*
Y363344D01*
X445098D01*
Y363117D01*
X444871D01*
Y363344D01*
X444188D01*
Y363117D01*
X443960D01*
Y363344D01*
X443277D01*
Y363117D01*
X443049D01*
Y363344D01*
X442366D01*
Y363117D01*
X442138D01*
Y363344D01*
X441455D01*
Y363117D01*
X441228D01*
Y363344D01*
X440545D01*
Y363117D01*
X440317D01*
Y363344D01*
X439634D01*
Y363117D01*
X439406D01*
Y363344D01*
X438723D01*
Y363117D01*
X438495D01*
Y363344D01*
X437812D01*
Y363572D01*
X437129D01*
Y363800D01*
X436902D01*
Y364027D01*
X436674D01*
Y364255D01*
X436446D01*
Y364483D01*
X435991D01*
Y364710D01*
X435763D01*
Y364938D01*
X435308D01*
Y365166D01*
X435080D01*
Y365393D01*
X434852D01*
Y365621D01*
X434625D01*
Y365849D01*
X433942D01*
Y366077D01*
X433714D01*
Y366304D01*
X433486D01*
Y366532D01*
X433259D01*
Y366760D01*
X433031D01*
Y366987D01*
X432576D01*
Y367215D01*
X432120D01*
Y367443D01*
X431893D01*
Y367670D01*
X431665D01*
Y367898D01*
X431437D01*
Y368126D01*
X430754D01*
Y368353D01*
X430526D01*
Y368581D01*
X430299D01*
Y368809D01*
X430071D01*
Y369036D01*
X429388D01*
Y369264D01*
X429160D01*
Y369492D01*
X428933D01*
Y369720D01*
X428705D01*
Y369947D01*
X428022D01*
Y370175D01*
X427794D01*
Y370403D01*
X427566D01*
Y370630D01*
X427339D01*
Y370858D01*
X427111D01*
Y371086D01*
X426883D01*
Y371313D01*
X426200D01*
Y371541D01*
X425973D01*
Y371769D01*
X426200D01*
Y371996D01*
X426428D01*
Y372224D01*
X426656D01*
Y372452D01*
X427339D01*
Y372679D01*
X427566D01*
Y372907D01*
X428250D01*
Y373135D01*
X428477D01*
Y373363D01*
X429160D01*
Y373590D01*
X429388D01*
Y373818D01*
X430071D01*
Y374046D01*
X430299D01*
Y374273D01*
X430982D01*
Y374501D01*
X431209D01*
Y374273D01*
X431437D01*
Y374501D01*
X431665D01*
Y374729D01*
X432348D01*
Y374956D01*
X433031D01*
Y375184D01*
X433714D01*
Y375412D01*
X433942D01*
Y375184D01*
X434169D01*
Y375412D01*
X434397D01*
Y375639D01*
X435536D01*
Y375867D01*
X436219D01*
Y376095D01*
X436446D01*
Y375867D01*
X436674D01*
Y376095D01*
X437357D01*
Y376323D01*
X437585D01*
Y376095D01*
X437812D01*
Y376323D01*
X438040D01*
Y376095D01*
X438268D01*
Y376323D01*
X438951D01*
Y376550D01*
X439179D01*
Y376323D01*
X439406D01*
Y376550D01*
X439634D01*
Y376323D01*
X439862D01*
Y376550D01*
X445098D01*
Y376323D01*
X445326D01*
Y376550D01*
X445554D01*
Y376323D01*
X445782D01*
Y376550D01*
X446009D01*
Y376323D01*
X446237D01*
Y376550D01*
X446465D01*
Y376323D01*
D02*
G37*
G36*
X486082Y364483D02*
X486310D01*
Y364255D01*
X486538D01*
Y364483D01*
X486765D01*
Y364255D01*
X487448D01*
Y364027D01*
X487676D01*
Y363800D01*
X487904D01*
Y363572D01*
X488131D01*
Y363344D01*
X488359D01*
Y363117D01*
X488587D01*
Y362889D01*
X488814D01*
Y362661D01*
X489042D01*
Y362434D01*
X489270D01*
Y362206D01*
X489042D01*
Y361978D01*
X489270D01*
Y361750D01*
X489497D01*
Y361523D01*
Y361295D01*
Y361067D01*
X489725D01*
Y360840D01*
X489497D01*
Y360612D01*
X489725D01*
Y360384D01*
X489497D01*
Y360157D01*
X489725D01*
Y359929D01*
X489497D01*
Y359701D01*
X489725D01*
Y359474D01*
X489497D01*
Y359246D01*
Y359018D01*
Y358791D01*
X489270D01*
Y358563D01*
X489042D01*
Y358335D01*
X489270D01*
Y358107D01*
X489042D01*
Y357880D01*
X488814D01*
Y357652D01*
X488587D01*
Y357424D01*
X488359D01*
Y357197D01*
X488131D01*
Y356969D01*
X487904D01*
Y356741D01*
X487220D01*
Y356514D01*
X487448D01*
Y356286D01*
X487220D01*
Y356514D01*
X486993D01*
Y356286D01*
X486310D01*
Y356058D01*
X486082D01*
Y356286D01*
X485854D01*
Y356058D01*
X485171D01*
Y355831D01*
X484944D01*
Y356058D01*
X484261D01*
Y356286D01*
X483578D01*
Y356514D01*
X483350D01*
Y356741D01*
X482667D01*
Y356969D01*
X482439D01*
Y357197D01*
X482211D01*
Y357424D01*
X481984D01*
Y357652D01*
X481756D01*
Y357880D01*
Y358107D01*
X481528D01*
Y358335D01*
Y358563D01*
X481301D01*
Y358791D01*
Y359018D01*
Y359246D01*
X481073D01*
Y359474D01*
X465363D01*
Y359246D01*
X465135D01*
Y359018D01*
X464907D01*
Y358791D01*
X464679D01*
Y358563D01*
X464452D01*
Y358335D01*
X464224D01*
Y358107D01*
X463996D01*
Y357880D01*
X463769D01*
Y357652D01*
X463541D01*
Y357424D01*
X463313D01*
Y357197D01*
X463086D01*
Y356969D01*
X462858D01*
Y356741D01*
X462630D01*
Y356514D01*
X462403D01*
Y356286D01*
X461947D01*
Y356058D01*
X461720D01*
Y355831D01*
X461492D01*
Y355603D01*
X461264D01*
Y355375D01*
X460809D01*
Y355148D01*
Y354920D01*
X460353D01*
Y354692D01*
Y354464D01*
X459898D01*
Y354237D01*
X459670D01*
Y354009D01*
X459443D01*
Y353781D01*
X459215D01*
Y353554D01*
X458987D01*
Y353326D01*
X458760D01*
Y353098D01*
X458532D01*
Y352871D01*
X458304D01*
Y352643D01*
X458077D01*
Y352415D01*
X457849D01*
Y352188D01*
X457621D01*
Y351960D01*
X457393D01*
Y351732D01*
X457166D01*
Y351505D01*
X456938D01*
Y351277D01*
X456710D01*
Y351505D01*
X456483D01*
Y351277D01*
X456255D01*
Y351505D01*
X456027D01*
Y351277D01*
X455800D01*
Y351505D01*
X455572D01*
Y351277D01*
X454889D01*
Y351505D01*
X454661D01*
Y351277D01*
X453978D01*
Y351505D01*
X453750D01*
Y351277D01*
X453068D01*
Y351505D01*
X452840D01*
Y351277D01*
X452612D01*
Y351505D01*
X452384D01*
Y351277D01*
X452157D01*
Y351505D01*
X451929D01*
Y351277D01*
X451246D01*
Y351505D01*
X451018D01*
Y351277D01*
X450335D01*
Y351505D01*
X450107D01*
Y351277D01*
X449425D01*
Y351505D01*
X449197D01*
Y351277D01*
X448969D01*
Y351505D01*
X448741D01*
Y351277D01*
X448514D01*
Y351505D01*
X448286D01*
Y351277D01*
X447603D01*
Y351505D01*
X447375D01*
Y351277D01*
X446692D01*
Y351505D01*
X446465D01*
Y351277D01*
X445782D01*
Y351505D01*
X445554D01*
Y351277D01*
X445326D01*
Y351505D01*
X445098D01*
Y351277D01*
X444871D01*
Y351505D01*
X444643D01*
Y351277D01*
X443960D01*
Y351505D01*
X443732D01*
Y351277D01*
X443049D01*
Y351505D01*
X442822D01*
Y351277D01*
X442594D01*
Y351049D01*
X442366D01*
Y350821D01*
X442138D01*
Y350594D01*
X441911D01*
Y350366D01*
X441683D01*
Y350138D01*
X441455D01*
Y349911D01*
X441228D01*
Y349683D01*
X441000D01*
Y349455D01*
X440772D01*
Y349228D01*
X441000D01*
Y349000D01*
X440317D01*
Y348772D01*
X440545D01*
Y348545D01*
X439862D01*
Y348317D01*
X440089D01*
Y348089D01*
X439634D01*
Y347862D01*
Y347634D01*
X439179D01*
Y347406D01*
Y347178D01*
X438951D01*
Y346951D01*
X438723D01*
Y346723D01*
X438495D01*
Y346951D01*
X438268D01*
Y346723D01*
X438040D01*
Y346951D01*
X437812D01*
Y346723D01*
X437585D01*
Y346951D01*
X437357D01*
Y346723D01*
X437129D01*
Y346951D01*
X436902D01*
Y346723D01*
X436674D01*
Y346951D01*
X435991D01*
Y346723D01*
X435763D01*
Y346951D01*
X435080D01*
Y346723D01*
X434852D01*
Y346951D01*
X434169D01*
Y346723D01*
X433942D01*
Y346951D01*
X433259D01*
Y347178D01*
X433031D01*
Y346951D01*
X432348D01*
Y347178D01*
X432120D01*
Y346951D01*
X431893D01*
Y346723D01*
X431437D01*
Y346495D01*
Y346268D01*
X431209D01*
Y346040D01*
X430982D01*
Y345812D01*
X430754D01*
Y345585D01*
X430526D01*
Y345357D01*
X430299D01*
Y345129D01*
X430071D01*
Y344902D01*
X429843D01*
Y344674D01*
X429616D01*
Y344446D01*
X429388D01*
Y344218D01*
X429160D01*
Y343991D01*
X428933D01*
Y343763D01*
X428705D01*
Y343535D01*
X428477D01*
Y343308D01*
X428250D01*
Y343080D01*
X428022D01*
Y342852D01*
X427794D01*
Y342625D01*
X427566D01*
Y342397D01*
X427339D01*
Y342169D01*
X427111D01*
Y341942D01*
Y341714D01*
X426656D01*
Y341486D01*
Y341259D01*
X426200D01*
Y341031D01*
X426428D01*
Y340803D01*
X425973D01*
Y340576D01*
Y340348D01*
X425517D01*
Y340120D01*
Y339893D01*
X425062D01*
Y339665D01*
Y339437D01*
X424834D01*
Y339209D01*
X424607D01*
Y338982D01*
X424379D01*
Y338754D01*
X424151D01*
Y338526D01*
X423923D01*
Y338299D01*
X423696D01*
Y338071D01*
X423468D01*
Y337843D01*
X423240D01*
Y337616D01*
X423013D01*
Y337388D01*
X422785D01*
Y337160D01*
X422557D01*
Y336933D01*
X422330D01*
Y336705D01*
X422102D01*
Y336477D01*
X421874D01*
Y336250D01*
X421647D01*
Y336022D01*
X421419D01*
Y335794D01*
X421191D01*
Y335566D01*
Y335339D01*
X420736D01*
Y335111D01*
Y334883D01*
X420280D01*
Y334656D01*
Y334428D01*
X420053D01*
Y334200D01*
X419825D01*
Y333973D01*
X419597D01*
Y333745D01*
Y333517D01*
X419142D01*
Y333289D01*
Y333062D01*
X418914D01*
Y332834D01*
X418687D01*
Y332607D01*
X418459D01*
Y332379D01*
X418231D01*
Y332151D01*
X418004D01*
Y331923D01*
X417776D01*
Y331696D01*
X417548D01*
Y331468D01*
X417321D01*
Y331240D01*
X417093D01*
Y331013D01*
X416865D01*
Y330785D01*
X416637D01*
Y330557D01*
X416410D01*
Y330330D01*
X416182D01*
Y330102D01*
X415954D01*
Y330330D01*
X415727D01*
Y330557D01*
X415499D01*
Y330785D01*
X415271D01*
Y331013D01*
X415499D01*
Y331240D01*
X415271D01*
Y331468D01*
X415044D01*
Y331696D01*
Y331923D01*
Y332151D01*
X414816D01*
Y332379D01*
X414588D01*
Y332607D01*
X414361D01*
Y332834D01*
X414588D01*
Y333062D01*
X414361D01*
Y333289D01*
Y333517D01*
X414133D01*
Y333745D01*
Y333973D01*
X413905D01*
Y334200D01*
X413677D01*
Y334428D01*
X413450D01*
Y334656D01*
X413677D01*
Y334883D01*
X413450D01*
Y335111D01*
Y335339D01*
Y335566D01*
X413677D01*
Y335794D01*
X413450D01*
Y336022D01*
X413677D01*
Y336250D01*
X413905D01*
Y336477D01*
X414133D01*
Y336705D01*
X414361D01*
Y336933D01*
X414588D01*
Y337160D01*
X414816D01*
Y337388D01*
X415044D01*
Y337616D01*
X415271D01*
Y337843D01*
X415499D01*
Y338071D01*
X415727D01*
Y338299D01*
X415954D01*
Y338526D01*
Y338754D01*
X416410D01*
Y338982D01*
X416182D01*
Y339209D01*
X416637D01*
Y339437D01*
Y339665D01*
X417093D01*
Y339893D01*
Y340120D01*
X417321D01*
Y340348D01*
X417548D01*
Y340576D01*
X417776D01*
Y340803D01*
X418004D01*
Y341031D01*
X418231D01*
Y341259D01*
X418459D01*
Y341486D01*
X418687D01*
Y341714D01*
X418914D01*
Y341942D01*
X419142D01*
Y342169D01*
X419370D01*
Y342397D01*
X419597D01*
Y342625D01*
Y342852D01*
X420053D01*
Y343080D01*
Y343308D01*
Y343535D01*
X420280D01*
Y343763D01*
X420508D01*
Y343991D01*
X420736D01*
Y344218D01*
X420964D01*
Y344446D01*
X421191D01*
Y344674D01*
X421419D01*
Y344902D01*
X421647D01*
Y345129D01*
X421874D01*
Y345357D01*
X422102D01*
Y345585D01*
X422330D01*
Y345812D01*
Y346040D01*
X422785D01*
Y346268D01*
X422557D01*
Y346495D01*
X423013D01*
Y346723D01*
Y346951D01*
X423468D01*
Y347178D01*
Y347406D01*
X423696D01*
Y347634D01*
X423923D01*
Y347862D01*
X424151D01*
Y348089D01*
X424379D01*
Y348317D01*
X424607D01*
Y348545D01*
X424834D01*
Y348772D01*
X425062D01*
Y349000D01*
X425290D01*
Y349228D01*
X425517D01*
Y349455D01*
X425745D01*
Y349683D01*
X425973D01*
Y349911D01*
Y350138D01*
X426428D01*
Y350366D01*
X426200D01*
Y350594D01*
X426428D01*
Y350821D01*
X426656D01*
Y351049D01*
X426883D01*
Y351277D01*
X427111D01*
Y351505D01*
X427339D01*
Y351732D01*
X427566D01*
Y351960D01*
X427794D01*
Y352188D01*
X428022D01*
Y352415D01*
X428250D01*
Y352643D01*
X428477D01*
Y352871D01*
X428705D01*
Y353098D01*
Y353326D01*
X429160D01*
Y353554D01*
X428933D01*
Y353781D01*
X429388D01*
Y354009D01*
Y354237D01*
X429843D01*
Y354464D01*
Y354692D01*
X430071D01*
Y354920D01*
X430299D01*
Y355148D01*
X430526D01*
Y355375D01*
X430754D01*
Y355603D01*
X430982D01*
Y355831D01*
X431209D01*
Y356058D01*
X431893D01*
Y356286D01*
X432120D01*
Y356058D01*
X433714D01*
Y356286D01*
X433942D01*
Y356058D01*
X435080D01*
Y356286D01*
X434852D01*
Y356514D01*
X435080D01*
Y356741D01*
Y356969D01*
X435308D01*
Y357197D01*
Y357424D01*
X435536D01*
Y357652D01*
X435763D01*
Y357880D01*
X436219D01*
Y358107D01*
X436674D01*
Y358335D01*
X437357D01*
Y358563D01*
X437585D01*
Y358335D01*
X437812D01*
Y358563D01*
X438040D01*
Y358335D01*
X438268D01*
Y358563D01*
X438495D01*
Y358335D01*
X439634D01*
Y358107D01*
X439862D01*
Y357880D01*
X440089D01*
Y357652D01*
X440317D01*
Y357424D01*
X440545D01*
Y357197D01*
X440772D01*
Y356969D01*
Y356741D01*
Y356514D01*
X441000D01*
Y356286D01*
X441228D01*
Y356058D01*
X441000D01*
Y355831D01*
X441228D01*
Y355603D01*
Y355375D01*
Y355148D01*
X441000D01*
Y354920D01*
X441228D01*
Y354692D01*
X441000D01*
Y354464D01*
Y354237D01*
Y354009D01*
X440772D01*
Y353781D01*
Y353554D01*
X440545D01*
Y353326D01*
Y353098D01*
X440089D01*
Y352871D01*
Y352643D01*
X439406D01*
Y352415D01*
X439179D01*
Y352188D01*
X438040D01*
Y351960D01*
X437812D01*
Y352188D01*
X436674D01*
Y352415D01*
X436446D01*
Y352643D01*
X435991D01*
Y352871D01*
Y353098D01*
X435536D01*
Y353326D01*
Y353554D01*
X435308D01*
Y353781D01*
X435080D01*
Y354009D01*
X434852D01*
Y354237D01*
X435080D01*
Y354464D01*
X431665D01*
Y354237D01*
Y354009D01*
X431209D01*
Y353781D01*
Y353554D01*
X430982D01*
Y353326D01*
Y353098D01*
X430754D01*
Y352871D01*
X430526D01*
Y352643D01*
X430299D01*
Y352415D01*
X430071D01*
Y352188D01*
X429843D01*
Y351960D01*
X429616D01*
Y351732D01*
X429388D01*
Y351505D01*
X429160D01*
Y351277D01*
X428933D01*
Y351049D01*
X428705D01*
Y350821D01*
X428477D01*
Y350594D01*
X428250D01*
Y350366D01*
X428022D01*
Y350138D01*
X428250D01*
Y349911D01*
X427794D01*
Y349683D01*
Y349455D01*
X427339D01*
Y349228D01*
Y349000D01*
X427111D01*
Y348772D01*
X426883D01*
Y348545D01*
X426656D01*
Y348317D01*
X426428D01*
Y348089D01*
X426200D01*
Y347862D01*
X425973D01*
Y347634D01*
X425745D01*
Y347406D01*
X425517D01*
Y347178D01*
X425290D01*
Y346951D01*
Y346723D01*
X424834D01*
Y346495D01*
Y346268D01*
X424607D01*
Y346040D01*
X424379D01*
Y345812D01*
X424151D01*
Y345585D01*
Y345357D01*
X423923D01*
Y345129D01*
X423696D01*
Y344902D01*
X423468D01*
Y344674D01*
X423240D01*
Y344446D01*
X423013D01*
Y344218D01*
X422785D01*
Y343991D01*
X422557D01*
Y343763D01*
X422330D01*
Y343535D01*
X422102D01*
Y343308D01*
X421874D01*
Y343080D01*
X421647D01*
Y342852D01*
Y342625D01*
X421191D01*
Y342397D01*
X421419D01*
Y342169D01*
X420736D01*
Y341942D01*
X420964D01*
Y341714D01*
X420508D01*
Y341486D01*
Y341259D01*
X420280D01*
Y341031D01*
X420053D01*
Y340803D01*
X419825D01*
Y340576D01*
X419597D01*
Y340348D01*
X419370D01*
Y340120D01*
X419142D01*
Y339893D01*
X418914D01*
Y339665D01*
X418687D01*
Y339437D01*
X418459D01*
Y339209D01*
Y338982D01*
X418004D01*
Y338754D01*
Y338526D01*
X417776D01*
Y338299D01*
Y338071D01*
X417548D01*
Y337843D01*
Y337616D01*
Y337388D01*
X417776D01*
Y337160D01*
X417548D01*
Y336933D01*
X417776D01*
Y336705D01*
X418004D01*
Y336477D01*
X418231D01*
Y336250D01*
X418004D01*
Y336022D01*
X418231D01*
Y335794D01*
Y335566D01*
X418914D01*
Y335794D01*
Y336022D01*
X419142D01*
Y336250D01*
X419370D01*
Y336477D01*
X419597D01*
Y336705D01*
X419825D01*
Y336933D01*
X420053D01*
Y337160D01*
X420280D01*
Y337388D01*
X420508D01*
Y337616D01*
X420736D01*
Y337843D01*
X420964D01*
Y338071D01*
X421191D01*
Y338299D01*
X421419D01*
Y338526D01*
X421647D01*
Y338754D01*
X421874D01*
Y338982D01*
X422102D01*
Y339209D01*
X422330D01*
Y339437D01*
X422557D01*
Y339665D01*
X422785D01*
Y339893D01*
X423013D01*
Y340120D01*
X423240D01*
Y340348D01*
X423468D01*
Y340576D01*
X423696D01*
Y340803D01*
Y341031D01*
X424151D01*
Y341259D01*
Y341486D01*
X424379D01*
Y341714D01*
Y341942D01*
X424834D01*
Y342169D01*
Y342397D01*
X425290D01*
Y342625D01*
Y342852D01*
X425745D01*
Y343080D01*
Y343308D01*
X425973D01*
Y343535D01*
X426200D01*
Y343763D01*
X426428D01*
Y343991D01*
X426656D01*
Y344218D01*
X426883D01*
Y344446D01*
X427111D01*
Y344674D01*
X427339D01*
Y344902D01*
X427566D01*
Y345129D01*
X427794D01*
Y345357D01*
X428022D01*
Y345585D01*
X428250D01*
Y345812D01*
X428477D01*
Y346040D01*
X428705D01*
Y346268D01*
X428933D01*
Y346495D01*
X429160D01*
Y346723D01*
X429388D01*
Y346951D01*
X429616D01*
Y347178D01*
X429843D01*
Y347406D01*
X430071D01*
Y347634D01*
X430299D01*
Y347862D01*
X430526D01*
Y348089D01*
Y348317D01*
X430982D01*
Y348545D01*
Y348772D01*
X433714D01*
Y348545D01*
X433942D01*
Y348772D01*
X434625D01*
Y348545D01*
X434852D01*
Y348772D01*
X435536D01*
Y348545D01*
X435763D01*
Y348772D01*
X435991D01*
Y348545D01*
X436219D01*
Y348772D01*
X436446D01*
Y348545D01*
X436674D01*
Y348772D01*
X436902D01*
Y348545D01*
X437129D01*
Y348772D01*
X437357D01*
Y348545D01*
X437585D01*
Y348772D01*
X438268D01*
Y349000D01*
Y349228D01*
X438723D01*
Y349455D01*
X438495D01*
Y349683D01*
X438951D01*
Y349911D01*
Y350138D01*
X439406D01*
Y350366D01*
Y350594D01*
X439862D01*
Y350821D01*
Y351049D01*
X440317D01*
Y351277D01*
Y351505D01*
X440545D01*
Y351732D01*
X440772D01*
Y351960D01*
X441000D01*
Y352188D01*
X441228D01*
Y352415D01*
X441455D01*
Y352643D01*
X441683D01*
Y352871D01*
X441911D01*
Y353098D01*
X442138D01*
Y353326D01*
X456483D01*
Y353554D01*
X456255D01*
Y353781D01*
X456938D01*
Y354009D01*
X457166D01*
Y354237D01*
X457393D01*
Y354464D01*
X457621D01*
Y354692D01*
X457849D01*
Y354920D01*
X458077D01*
Y355148D01*
X458304D01*
Y355375D01*
X458532D01*
Y355603D01*
X458760D01*
Y355831D01*
X458987D01*
Y356058D01*
X459215D01*
Y356286D01*
X459443D01*
Y356514D01*
X459670D01*
Y356741D01*
X459898D01*
Y356969D01*
X460126D01*
Y357197D01*
X460353D01*
Y357424D01*
X461036D01*
Y357652D01*
X460809D01*
Y357880D01*
X461492D01*
Y358107D01*
Y358335D01*
X461947D01*
Y358563D01*
X462175D01*
Y358791D01*
X462403D01*
Y359018D01*
X462630D01*
Y359246D01*
X462858D01*
Y359474D01*
X463086D01*
Y359701D01*
X463313D01*
Y359929D01*
X463541D01*
Y360157D01*
X463769D01*
Y360384D01*
X463996D01*
Y360612D01*
X464224D01*
Y360840D01*
X464452D01*
Y361067D01*
X465135D01*
Y361295D01*
X465363D01*
Y361067D01*
X465590D01*
Y361295D01*
X465818D01*
Y361067D01*
X466046D01*
Y361295D01*
X466273D01*
Y361067D01*
X466501D01*
Y361295D01*
X466729D01*
Y361067D01*
X466956D01*
Y361295D01*
X467184D01*
Y361067D01*
X467412D01*
Y361295D01*
X467640D01*
Y361067D01*
X467867D01*
Y361295D01*
X468095D01*
Y361067D01*
X468322D01*
Y361295D01*
X468550D01*
Y361067D01*
X468778D01*
Y361295D01*
X469006D01*
Y361067D01*
X469233D01*
Y361295D01*
X469461D01*
Y361067D01*
X469689D01*
Y361295D01*
X469916D01*
Y361067D01*
X470144D01*
Y361295D01*
X470372D01*
Y361067D01*
X470599D01*
Y361295D01*
X470827D01*
Y361067D01*
X471055D01*
Y361295D01*
X471282D01*
Y361067D01*
X471510D01*
Y361295D01*
X471738D01*
Y361067D01*
X471965D01*
Y361295D01*
X472193D01*
Y361067D01*
X472421D01*
Y361295D01*
X472649D01*
Y361067D01*
X472876D01*
Y361295D01*
X473104D01*
Y361067D01*
X473332D01*
Y361295D01*
X473559D01*
Y361067D01*
X473787D01*
Y361295D01*
X474015D01*
Y361067D01*
X474242D01*
Y361295D01*
X474470D01*
Y361067D01*
X474698D01*
Y361295D01*
X474925D01*
Y361067D01*
X475153D01*
Y361295D01*
X475381D01*
Y361067D01*
X475608D01*
Y361295D01*
X475836D01*
Y361067D01*
X476064D01*
Y361295D01*
X476292D01*
Y361067D01*
X476519D01*
Y361295D01*
X476747D01*
Y361067D01*
X476975D01*
Y361295D01*
X477202D01*
Y361067D01*
X477430D01*
Y361295D01*
X477658D01*
Y361067D01*
X477885D01*
Y361295D01*
X478113D01*
Y361067D01*
X478341D01*
Y361295D01*
X478568D01*
Y361067D01*
X478796D01*
Y361295D01*
X479024D01*
Y361067D01*
X479252D01*
Y361295D01*
X479479D01*
Y361067D01*
X479707D01*
Y361295D01*
X479935D01*
Y361067D01*
X480162D01*
Y361295D01*
X480390D01*
Y361067D01*
X480618D01*
Y361295D01*
X480845D01*
Y361067D01*
X481073D01*
Y361295D01*
X481301D01*
Y361523D01*
Y361750D01*
Y361978D01*
X481528D01*
Y362206D01*
Y362434D01*
X481756D01*
Y362661D01*
Y362889D01*
X481984D01*
Y363117D01*
X482211D01*
Y363344D01*
X482439D01*
Y363572D01*
X482667D01*
Y363800D01*
X483122D01*
Y364027D01*
X483578D01*
Y364255D01*
X483805D01*
Y364483D01*
X484033D01*
Y364255D01*
X484261D01*
Y364483D01*
X484488D01*
Y364710D01*
X484716D01*
Y364483D01*
X484944D01*
Y364710D01*
X485171D01*
Y364483D01*
X485399D01*
Y364710D01*
X485627D01*
Y364483D01*
X485854D01*
Y364710D01*
X486082D01*
Y364483D01*
D02*
G37*
G36*
X469006Y352871D02*
X470144D01*
Y352643D01*
X470372D01*
Y352871D01*
X470599D01*
Y352643D01*
X470827D01*
Y352415D01*
X471510D01*
Y352188D01*
X471738D01*
Y351960D01*
X472193D01*
Y351732D01*
Y351505D01*
X472649D01*
Y351277D01*
Y351049D01*
X473104D01*
Y350821D01*
Y350594D01*
X473559D01*
Y350366D01*
Y350138D01*
X473787D01*
Y349911D01*
X474015D01*
Y349683D01*
Y349455D01*
Y349228D01*
X474242D01*
Y349000D01*
Y348772D01*
Y348545D01*
X474470D01*
Y348317D01*
X474698D01*
Y348089D01*
X474470D01*
Y347862D01*
X474698D01*
Y347634D01*
X474470D01*
Y347406D01*
X474698D01*
Y347178D01*
X474470D01*
Y346951D01*
X474698D01*
Y346723D01*
X474470D01*
Y346495D01*
X474698D01*
Y346268D01*
X474470D01*
Y346040D01*
Y345812D01*
Y345585D01*
Y345357D01*
Y345129D01*
X474242D01*
Y344902D01*
X474015D01*
Y344674D01*
X474242D01*
Y344446D01*
X474015D01*
Y344218D01*
X473787D01*
Y343991D01*
X473559D01*
Y343763D01*
X473787D01*
Y343535D01*
X473559D01*
Y343308D01*
X473332D01*
Y343080D01*
X473104D01*
Y342852D01*
X472876D01*
Y342625D01*
X472649D01*
Y342397D01*
X472421D01*
Y342169D01*
X471738D01*
Y341942D01*
X471965D01*
Y341714D01*
X471282D01*
Y341486D01*
X471055D01*
Y341259D01*
X469916D01*
Y341031D01*
X469233D01*
Y340803D01*
X469006D01*
Y341031D01*
X468778D01*
Y340803D01*
X468550D01*
Y341031D01*
X468322D01*
Y340803D01*
X468095D01*
Y341031D01*
X467412D01*
Y341259D01*
X467184D01*
Y341031D01*
X466956D01*
Y341259D01*
X466273D01*
Y341486D01*
X466046D01*
Y341714D01*
X465363D01*
Y341942D01*
X465135D01*
Y342169D01*
X464907D01*
Y342397D01*
X464679D01*
Y342625D01*
X464224D01*
Y342852D01*
Y343080D01*
X463996D01*
Y343308D01*
X463769D01*
Y343535D01*
X463541D01*
Y343763D01*
X463313D01*
Y343991D01*
X463086D01*
Y344218D01*
X463313D01*
Y344446D01*
X463086D01*
Y344674D01*
X462858D01*
Y344902D01*
Y345129D01*
Y345357D01*
X462630D01*
Y345585D01*
X462858D01*
Y345812D01*
X462630D01*
Y346040D01*
X462403D01*
Y345812D01*
X462175D01*
Y346040D01*
X461947D01*
Y345812D01*
X461720D01*
Y346040D01*
X461492D01*
Y345812D01*
X461264D01*
Y346040D01*
X461036D01*
Y345812D01*
X460809D01*
Y346040D01*
X460581D01*
Y345812D01*
X460353D01*
Y346040D01*
X460126D01*
Y345812D01*
X459898D01*
Y346040D01*
X459670D01*
Y345812D01*
X459443D01*
Y346040D01*
X459215D01*
Y345812D01*
X458987D01*
Y346040D01*
X458760D01*
Y345812D01*
X458532D01*
Y346040D01*
X458304D01*
Y345812D01*
X458077D01*
Y346040D01*
X457849D01*
Y345812D01*
X457621D01*
Y346040D01*
X457393D01*
Y345812D01*
X457166D01*
Y346040D01*
X456938D01*
Y345812D01*
X456710D01*
Y346040D01*
X456483D01*
Y345812D01*
X456255D01*
Y346040D01*
X456027D01*
Y345812D01*
X455800D01*
Y346040D01*
X455572D01*
Y345812D01*
X455344D01*
Y346040D01*
X455117D01*
Y345812D01*
X454889D01*
Y346040D01*
X454661D01*
Y345812D01*
X454434D01*
Y346040D01*
X454206D01*
Y345812D01*
X453978D01*
Y346040D01*
X453750D01*
Y345812D01*
X453523D01*
Y346040D01*
X453295D01*
Y345812D01*
X453068D01*
Y346040D01*
X452840D01*
Y345812D01*
X452612D01*
Y346040D01*
X452384D01*
Y345812D01*
X452157D01*
Y346040D01*
X451929D01*
Y345812D01*
X451701D01*
Y346040D01*
X451474D01*
Y345812D01*
X451246D01*
Y346040D01*
X451018D01*
Y345812D01*
X450791D01*
Y346040D01*
X450563D01*
Y345812D01*
X450335D01*
Y346040D01*
X450107D01*
Y345812D01*
X449880D01*
Y346040D01*
X449652D01*
Y345812D01*
X449425D01*
Y346040D01*
X449197D01*
Y345812D01*
X448969D01*
Y346040D01*
X448741D01*
Y345812D01*
X448514D01*
Y346040D01*
X448286D01*
Y345812D01*
X448058D01*
Y346040D01*
X447831D01*
Y345812D01*
X447603D01*
Y346040D01*
X447375D01*
Y345812D01*
X447148D01*
Y346040D01*
X446920D01*
Y345812D01*
X446692D01*
Y346040D01*
X446465D01*
Y345812D01*
X446237D01*
Y346040D01*
X446009D01*
Y345812D01*
X445782D01*
Y346040D01*
X445554D01*
Y345812D01*
X445326D01*
Y346040D01*
X445098D01*
Y345812D01*
X444871D01*
Y346040D01*
X444643D01*
Y345812D01*
X444415D01*
Y346040D01*
X444188D01*
Y345812D01*
X443960D01*
Y346040D01*
X443732D01*
Y345812D01*
X443505D01*
Y346040D01*
X443277D01*
Y345812D01*
X443049D01*
Y346040D01*
X442822D01*
Y345812D01*
X442594D01*
Y345585D01*
X442366D01*
Y345357D01*
X442138D01*
Y345129D01*
X441911D01*
Y344902D01*
X441683D01*
Y344674D01*
X441455D01*
Y344446D01*
X441228D01*
Y344218D01*
X441000D01*
Y343991D01*
X440772D01*
Y343763D01*
X440545D01*
Y343535D01*
X440317D01*
Y343308D01*
X440089D01*
Y343080D01*
X439862D01*
Y342852D01*
X439634D01*
Y342625D01*
X439406D01*
Y342397D01*
Y342169D01*
X438951D01*
Y341942D01*
X439179D01*
Y341714D01*
X438495D01*
Y341486D01*
X452384D01*
Y341259D01*
X452157D01*
Y341031D01*
X452612D01*
Y340803D01*
Y340576D01*
X452840D01*
Y340348D01*
X453068D01*
Y340120D01*
X453295D01*
Y339893D01*
X453523D01*
Y339665D01*
X453750D01*
Y339437D01*
X453978D01*
Y339209D01*
X454206D01*
Y338982D01*
X454434D01*
Y338754D01*
X454661D01*
Y338526D01*
X454889D01*
Y338299D01*
X455117D01*
Y338071D01*
X455344D01*
Y337843D01*
X455572D01*
Y337616D01*
Y337388D01*
X456027D01*
Y337160D01*
Y336933D01*
X456255D01*
Y336705D01*
Y336477D01*
X456710D01*
Y336250D01*
Y336022D01*
X457166D01*
Y335794D01*
Y335566D01*
X457393D01*
Y335339D01*
X457621D01*
Y335111D01*
X457849D01*
Y334883D01*
X458077D01*
Y334656D01*
X458304D01*
Y334428D01*
X458532D01*
Y334200D01*
X458760D01*
Y333973D01*
X458987D01*
Y333745D01*
X459215D01*
Y333517D01*
X459443D01*
Y333289D01*
X459670D01*
Y333062D01*
X459898D01*
Y332834D01*
X460126D01*
Y332607D01*
X460353D01*
Y332379D01*
X460581D01*
Y332151D01*
X460809D01*
Y331923D01*
X461036D01*
Y332151D01*
X461264D01*
Y331923D01*
X461492D01*
Y332151D01*
X461720D01*
Y331923D01*
X461947D01*
Y332151D01*
X462175D01*
Y331923D01*
X462403D01*
Y332151D01*
X462630D01*
Y331923D01*
X462858D01*
Y332151D01*
X463086D01*
Y331923D01*
X463313D01*
Y332151D01*
X463541D01*
Y331923D01*
X463769D01*
Y332151D01*
X463996D01*
Y331923D01*
X464224D01*
Y332151D01*
X464452D01*
Y331923D01*
X464679D01*
Y332151D01*
X464907D01*
Y331923D01*
X465135D01*
Y332151D01*
X465363D01*
Y331923D01*
X465590D01*
Y332151D01*
X465818D01*
Y331923D01*
X466046D01*
Y332151D01*
X466273D01*
Y331923D01*
X466501D01*
Y332151D01*
X466729D01*
Y331923D01*
X466956D01*
Y332151D01*
X467184D01*
Y331923D01*
X467412D01*
Y332151D01*
X467640D01*
Y331923D01*
X467867D01*
Y332151D01*
X468095D01*
Y331923D01*
X468322D01*
Y332151D01*
X468550D01*
Y331923D01*
X468778D01*
Y332151D01*
X469006D01*
Y331923D01*
X469233D01*
Y332151D01*
X469461D01*
Y331923D01*
X469689D01*
Y332151D01*
X469916D01*
Y331923D01*
X470144D01*
Y332151D01*
X470372D01*
Y331923D01*
X470599D01*
Y332151D01*
X470827D01*
Y331923D01*
X471055D01*
Y332151D01*
X471282D01*
Y331923D01*
X471510D01*
Y332151D01*
X471738D01*
Y331923D01*
X471965D01*
Y332151D01*
X472193D01*
Y331923D01*
X472421D01*
Y332151D01*
X472649D01*
Y331923D01*
X472876D01*
Y332151D01*
X473104D01*
Y331923D01*
X473332D01*
Y332151D01*
X473559D01*
Y331923D01*
X473787D01*
Y332151D01*
X474015D01*
Y331923D01*
X474242D01*
Y332151D01*
X474470D01*
Y331923D01*
X474698D01*
Y332151D01*
X474925D01*
Y331923D01*
X475153D01*
Y332151D01*
X475381D01*
Y331923D01*
X475608D01*
Y332151D01*
X475836D01*
Y331923D01*
X476064D01*
Y332151D01*
X476292D01*
Y331923D01*
X476519D01*
Y332151D01*
X476747D01*
Y331923D01*
X476975D01*
Y332151D01*
X477202D01*
Y331923D01*
X477430D01*
Y332151D01*
X477658D01*
Y331923D01*
X477885D01*
Y332151D01*
X478113D01*
Y331923D01*
X478341D01*
Y332151D01*
X478568D01*
Y331923D01*
X478796D01*
Y332151D01*
X479024D01*
Y331923D01*
X479252D01*
Y332151D01*
X479479D01*
Y331923D01*
X479707D01*
Y332151D01*
X479935D01*
Y331923D01*
X480162D01*
Y332151D01*
X480390D01*
Y331923D01*
X480618D01*
Y332151D01*
X480845D01*
Y331923D01*
X481073D01*
Y332151D01*
X481301D01*
Y331923D01*
X481528D01*
Y332151D01*
X481756D01*
Y331923D01*
X481984D01*
Y332151D01*
X481756D01*
Y332379D01*
X481984D01*
Y332607D01*
X481756D01*
Y332834D01*
X481984D01*
Y333062D01*
X482211D01*
Y333289D01*
X482439D01*
Y333517D01*
X482667D01*
Y333745D01*
X482895D01*
Y333973D01*
Y334200D01*
X483350D01*
Y334428D01*
X483578D01*
Y334656D01*
X483805D01*
Y334883D01*
X484033D01*
Y335111D01*
X484716D01*
Y335339D01*
X484944D01*
Y335111D01*
X485171D01*
Y335339D01*
X485854D01*
Y335111D01*
X486082D01*
Y335339D01*
X486310D01*
Y335111D01*
X486538D01*
Y335339D01*
X486765D01*
Y335111D01*
X487448D01*
Y334883D01*
X487676D01*
Y335111D01*
X487904D01*
Y334883D01*
X488131D01*
Y334656D01*
X488359D01*
Y334428D01*
X488587D01*
Y334200D01*
X488814D01*
Y333973D01*
X489042D01*
Y333745D01*
X489270D01*
Y333517D01*
X489497D01*
Y333289D01*
X489725D01*
Y333062D01*
Y332834D01*
Y332607D01*
X489953D01*
Y332379D01*
X490181D01*
Y332151D01*
X489953D01*
Y331923D01*
X490181D01*
Y331696D01*
Y331468D01*
Y331240D01*
Y331013D01*
Y330785D01*
Y330557D01*
Y330330D01*
X489953D01*
Y330102D01*
X490181D01*
Y329874D01*
X489953D01*
Y329647D01*
Y329419D01*
Y329191D01*
X489725D01*
Y328964D01*
X489497D01*
Y328736D01*
Y328508D01*
X489042D01*
Y328280D01*
X489270D01*
Y328053D01*
X488814D01*
Y327825D01*
Y327597D01*
X488131D01*
Y327370D01*
X487904D01*
Y327142D01*
X487220D01*
Y326914D01*
X486993D01*
Y326687D01*
X486765D01*
Y326914D01*
X486538D01*
Y326687D01*
X485854D01*
Y326914D01*
X485627D01*
Y326687D01*
X485399D01*
Y326914D01*
X485171D01*
Y326687D01*
X484944D01*
Y326914D01*
X484716D01*
Y327142D01*
X484033D01*
Y327370D01*
X483805D01*
Y327597D01*
X483122D01*
Y327825D01*
X482895D01*
Y328053D01*
X482667D01*
Y328280D01*
X482439D01*
Y328508D01*
X482211D01*
Y328736D01*
X482439D01*
Y328964D01*
X482211D01*
Y329191D01*
X481984D01*
Y329419D01*
X481756D01*
Y329647D01*
X481984D01*
Y329874D01*
X481756D01*
Y330102D01*
X481528D01*
Y329874D01*
X481301D01*
Y330102D01*
X481073D01*
Y329874D01*
X480845D01*
Y330102D01*
X480618D01*
Y329874D01*
X479935D01*
Y330102D01*
X479707D01*
Y329874D01*
X479479D01*
Y330102D01*
X479252D01*
Y329874D01*
X479024D01*
Y330102D01*
X478796D01*
Y329874D01*
X478568D01*
Y330102D01*
X478341D01*
Y329874D01*
X478113D01*
Y330102D01*
X477885D01*
Y329874D01*
X477658D01*
Y330102D01*
X477430D01*
Y329874D01*
X477202D01*
Y330102D01*
X476975D01*
Y329874D01*
X476292D01*
Y330102D01*
X476064D01*
Y329874D01*
X475836D01*
Y330102D01*
X475608D01*
Y329874D01*
X475381D01*
Y330102D01*
X475153D01*
Y329874D01*
X474925D01*
Y330102D01*
X474698D01*
Y329874D01*
X474470D01*
Y330102D01*
X474242D01*
Y329874D01*
X474015D01*
Y330102D01*
X473787D01*
Y329874D01*
X473559D01*
Y330102D01*
X473332D01*
Y329874D01*
X473104D01*
Y330102D01*
X472876D01*
Y329874D01*
X472649D01*
Y330102D01*
X472421D01*
Y329874D01*
X472193D01*
Y330102D01*
X471965D01*
Y329874D01*
X471738D01*
Y330102D01*
X471510D01*
Y329874D01*
X471282D01*
Y330102D01*
X471055D01*
Y329874D01*
X470827D01*
Y330102D01*
X470599D01*
Y329874D01*
X470372D01*
Y330102D01*
X470144D01*
Y329874D01*
X469916D01*
Y330102D01*
X469689D01*
Y329874D01*
X469461D01*
Y330102D01*
X469233D01*
Y329874D01*
X469006D01*
Y330102D01*
X468778D01*
Y329874D01*
X468550D01*
Y330102D01*
X468322D01*
Y329874D01*
X468095D01*
Y330102D01*
X467867D01*
Y329874D01*
X467640D01*
Y330102D01*
X467412D01*
Y329874D01*
X467184D01*
Y330102D01*
X466956D01*
Y329874D01*
X466729D01*
Y330102D01*
X466501D01*
Y329874D01*
X466273D01*
Y330102D01*
X466046D01*
Y329874D01*
X465818D01*
Y330102D01*
X465590D01*
Y329874D01*
X465363D01*
Y330102D01*
X465135D01*
Y329874D01*
X464907D01*
Y330102D01*
X464679D01*
Y329874D01*
X464452D01*
Y330102D01*
X464224D01*
Y329874D01*
X463996D01*
Y330102D01*
X463769D01*
Y329874D01*
X463541D01*
Y330102D01*
X463313D01*
Y329874D01*
X463086D01*
Y330102D01*
X462858D01*
Y329874D01*
X462630D01*
Y330102D01*
X462403D01*
Y329874D01*
X462175D01*
Y330102D01*
X461947D01*
Y329874D01*
X461720D01*
Y330102D01*
X461492D01*
Y329874D01*
X461264D01*
Y330102D01*
X461036D01*
Y329874D01*
X460809D01*
Y330102D01*
X460581D01*
Y329874D01*
X460353D01*
Y330102D01*
X460126D01*
Y329874D01*
X459898D01*
Y330102D01*
X459443D01*
Y330330D01*
X459215D01*
Y330557D01*
X458987D01*
Y330785D01*
X458760D01*
Y331013D01*
Y331240D01*
X458532D01*
Y331468D01*
X458304D01*
Y331696D01*
X458077D01*
Y331923D01*
X457849D01*
Y332151D01*
X457621D01*
Y332379D01*
X457393D01*
Y332607D01*
X457166D01*
Y332834D01*
X456938D01*
Y333062D01*
X456710D01*
Y333289D01*
X456483D01*
Y333517D01*
X456255D01*
Y333745D01*
X456027D01*
Y333973D01*
X455800D01*
Y334200D01*
X455572D01*
Y334428D01*
X455344D01*
Y334656D01*
X455572D01*
Y334883D01*
X454889D01*
Y335111D01*
X455117D01*
Y335339D01*
X454434D01*
Y335566D01*
X454661D01*
Y335794D01*
X454206D01*
Y336022D01*
Y336250D01*
X453978D01*
Y336477D01*
X453750D01*
Y336705D01*
X453523D01*
Y336933D01*
X453295D01*
Y337160D01*
X453068D01*
Y337388D01*
X452840D01*
Y337616D01*
X452612D01*
Y337843D01*
X452384D01*
Y338071D01*
X452157D01*
Y338299D01*
X451929D01*
Y338526D01*
X451701D01*
Y338754D01*
X451474D01*
Y338982D01*
X451246D01*
Y339209D01*
Y339437D01*
X436674D01*
Y339209D01*
X436446D01*
Y338982D01*
X436219D01*
Y338754D01*
X435991D01*
Y338526D01*
X435763D01*
Y338299D01*
X435536D01*
Y338071D01*
X435308D01*
Y337843D01*
X435080D01*
Y337616D01*
X434852D01*
Y337388D01*
X434625D01*
Y337160D01*
X434397D01*
Y336933D01*
X434169D01*
Y336705D01*
X433942D01*
Y336477D01*
Y336250D01*
X433486D01*
Y336022D01*
Y335794D01*
X433031D01*
Y335566D01*
Y335339D01*
X432803D01*
Y335111D01*
X432576D01*
Y334883D01*
X432348D01*
Y334656D01*
Y334428D01*
X432120D01*
Y334200D01*
X431893D01*
Y333973D01*
X431665D01*
Y333745D01*
X431437D01*
Y333517D01*
X431209D01*
Y333289D01*
X430982D01*
Y333062D01*
X430754D01*
Y332834D01*
X430526D01*
Y332607D01*
X430299D01*
Y332379D01*
X430071D01*
Y332151D01*
X429843D01*
Y331923D01*
X429616D01*
Y331696D01*
X429388D01*
Y331468D01*
X429160D01*
Y331240D01*
X428933D01*
Y331013D01*
X428705D01*
Y330785D01*
X428477D01*
Y330557D01*
X428250D01*
Y330330D01*
X428022D01*
Y330102D01*
X427794D01*
Y329874D01*
X427566D01*
Y329647D01*
Y329419D01*
X427111D01*
Y329191D01*
X427339D01*
Y328964D01*
X426656D01*
Y328736D01*
X426883D01*
Y328508D01*
X426200D01*
Y328280D01*
X426428D01*
Y328053D01*
X425973D01*
Y327825D01*
Y327597D01*
X425517D01*
Y327370D01*
Y327142D01*
X425290D01*
Y326914D01*
X425062D01*
Y326687D01*
X424834D01*
Y326459D01*
X424607D01*
Y326231D01*
X424834D01*
Y326004D01*
X425062D01*
Y325776D01*
X425290D01*
Y325548D01*
X425745D01*
Y325321D01*
Y325093D01*
X426428D01*
Y324865D01*
X426656D01*
Y324637D01*
X426883D01*
Y324410D01*
X427111D01*
Y324182D01*
X427339D01*
Y323954D01*
X427566D01*
Y324182D01*
X427794D01*
Y323954D01*
Y323727D01*
X428250D01*
Y323499D01*
X428477D01*
Y323271D01*
X428933D01*
Y323044D01*
X429388D01*
Y322816D01*
X429616D01*
Y322588D01*
X430299D01*
Y322361D01*
X430526D01*
Y322588D01*
Y322816D01*
X430982D01*
Y323044D01*
Y323271D01*
X431209D01*
Y323499D01*
Y323727D01*
X431893D01*
Y323954D01*
X431665D01*
Y324182D01*
X431893D01*
Y324410D01*
X432120D01*
Y324637D01*
X432348D01*
Y324865D01*
X432576D01*
Y325093D01*
X432803D01*
Y325321D01*
X433031D01*
Y325548D01*
X433259D01*
Y325776D01*
X433486D01*
Y326004D01*
X433714D01*
Y326231D01*
X433942D01*
Y326459D01*
X434169D01*
Y326687D01*
X434397D01*
Y326914D01*
X434625D01*
Y327142D01*
X434852D01*
Y327370D01*
X435080D01*
Y327597D01*
X435308D01*
Y327825D01*
X435536D01*
Y328053D01*
Y328280D01*
X435991D01*
Y328508D01*
X435763D01*
Y328736D01*
X436219D01*
Y328964D01*
Y329191D01*
X436674D01*
Y329419D01*
Y329647D01*
X437129D01*
Y329874D01*
Y330102D01*
X437585D01*
Y330330D01*
Y330557D01*
X437812D01*
Y330785D01*
X438040D01*
Y331013D01*
X438268D01*
Y331240D01*
X438495D01*
Y331468D01*
X438723D01*
Y331696D01*
X438951D01*
Y331468D01*
X439179D01*
Y331696D01*
X439406D01*
Y331468D01*
X439634D01*
Y331696D01*
X439862D01*
Y331468D01*
X440089D01*
Y331696D01*
X440317D01*
Y331468D01*
X440545D01*
Y331696D01*
X440772D01*
Y331468D01*
X441000D01*
Y331696D01*
X441228D01*
Y331468D01*
X441455D01*
Y331696D01*
X441683D01*
Y331468D01*
X441911D01*
Y331696D01*
X442138D01*
Y331468D01*
X442366D01*
Y331696D01*
X442594D01*
Y331468D01*
X442822D01*
Y331696D01*
X443049D01*
Y331468D01*
X443277D01*
Y331696D01*
X443505D01*
Y331468D01*
X443732D01*
Y331696D01*
X443960D01*
Y331468D01*
X444188D01*
Y331696D01*
X444415D01*
Y331468D01*
X444643D01*
Y331696D01*
X444871D01*
Y331468D01*
X445098D01*
Y331696D01*
X445326D01*
Y331468D01*
X445554D01*
Y331696D01*
X445782D01*
Y331468D01*
X446009D01*
Y331696D01*
X446237D01*
Y331468D01*
X446465D01*
Y331696D01*
X446692D01*
Y331468D01*
X446920D01*
Y331696D01*
X447148D01*
Y331468D01*
X447375D01*
Y331696D01*
X447603D01*
Y331468D01*
X447831D01*
Y331696D01*
X448058D01*
Y331923D01*
X448286D01*
Y332151D01*
X448514D01*
Y332379D01*
X448741D01*
Y332607D01*
X448969D01*
Y332834D01*
X449652D01*
Y333062D01*
X449880D01*
Y332834D01*
X450107D01*
Y333062D01*
X450335D01*
Y332834D01*
X451018D01*
Y332607D01*
X451246D01*
Y332379D01*
X451474D01*
Y332151D01*
X451701D01*
Y331923D01*
X451929D01*
Y331696D01*
X451701D01*
Y331468D01*
X451929D01*
Y331240D01*
X451701D01*
Y331013D01*
X451929D01*
Y330785D01*
X451701D01*
Y330557D01*
Y330330D01*
Y330102D01*
X451474D01*
Y329874D01*
X451246D01*
Y329647D01*
X451018D01*
Y329419D01*
X449880D01*
Y329191D01*
X449652D01*
Y329419D01*
X448969D01*
Y329647D01*
X448741D01*
Y329874D01*
X448514D01*
Y330102D01*
X448286D01*
Y330330D01*
Y330557D01*
Y330785D01*
X448058D01*
Y331013D01*
X447831D01*
Y330785D01*
X447148D01*
Y331013D01*
X446920D01*
Y330785D01*
X446237D01*
Y331013D01*
X446009D01*
Y330785D01*
X445326D01*
Y331013D01*
X445098D01*
Y330785D01*
X444415D01*
Y331013D01*
X444188D01*
Y330785D01*
X443505D01*
Y331013D01*
X443277D01*
Y330785D01*
X442594D01*
Y331013D01*
X442366D01*
Y330785D01*
X441683D01*
Y331013D01*
X441455D01*
Y330785D01*
X440772D01*
Y331013D01*
X440545D01*
Y330785D01*
X439862D01*
Y331013D01*
X439634D01*
Y330785D01*
X438951D01*
Y330557D01*
X438723D01*
Y330330D01*
X438495D01*
Y330102D01*
X438268D01*
Y329874D01*
X438040D01*
Y329647D01*
X437812D01*
Y329419D01*
X437585D01*
Y329191D01*
Y328964D01*
X437129D01*
Y328736D01*
Y328508D01*
X436674D01*
Y328280D01*
Y328053D01*
X436446D01*
Y327825D01*
X436219D01*
Y327597D01*
X435991D01*
Y327370D01*
Y327142D01*
X435763D01*
Y326914D01*
X435536D01*
Y326687D01*
X435308D01*
Y326459D01*
X435080D01*
Y326231D01*
X434852D01*
Y326004D01*
X434625D01*
Y325776D01*
X434397D01*
Y325548D01*
X434169D01*
Y325321D01*
X433942D01*
Y325093D01*
X433714D01*
Y324865D01*
X433486D01*
Y324637D01*
X433259D01*
Y324410D01*
X433031D01*
Y324182D01*
X432803D01*
Y323954D01*
X432576D01*
Y323727D01*
X432348D01*
Y323499D01*
X432120D01*
Y323271D01*
X431893D01*
Y323044D01*
X431665D01*
Y322816D01*
X431437D01*
Y322588D01*
X431209D01*
Y322361D01*
Y322133D01*
X430754D01*
Y321905D01*
X430982D01*
Y321678D01*
X430526D01*
Y321450D01*
Y321222D01*
X430071D01*
Y320994D01*
Y320767D01*
X429843D01*
Y320539D01*
X429616D01*
Y320311D01*
X429388D01*
Y320084D01*
X429160D01*
Y319856D01*
X428933D01*
Y319628D01*
X428705D01*
Y319401D01*
X428477D01*
Y319173D01*
X428250D01*
Y318945D01*
X428022D01*
Y318718D01*
Y318490D01*
X427566D01*
Y318718D01*
X427339D01*
Y318945D01*
X426656D01*
Y319173D01*
X426428D01*
Y319401D01*
X426200D01*
Y319628D01*
X425973D01*
Y319856D01*
X425290D01*
Y320084D01*
X425062D01*
Y320311D01*
X424834D01*
Y320539D01*
X424607D01*
Y320767D01*
X423923D01*
Y320994D01*
Y321222D01*
X423468D01*
Y321450D01*
X423240D01*
Y321678D01*
X423013D01*
Y321905D01*
X422785D01*
Y322133D01*
X422557D01*
Y322361D01*
X422330D01*
Y322588D01*
X421647D01*
Y322816D01*
X421874D01*
Y323044D01*
X421191D01*
Y323271D01*
Y323499D01*
X420736D01*
Y323727D01*
X420964D01*
Y323954D01*
X420280D01*
Y324182D01*
Y324410D01*
X419825D01*
Y324637D01*
X420053D01*
Y324865D01*
X420280D01*
Y325093D01*
X420508D01*
Y325321D01*
X420736D01*
Y325548D01*
X420964D01*
Y325776D01*
X421191D01*
Y326004D01*
X421419D01*
Y326231D01*
X421647D01*
Y326459D01*
X421874D01*
Y326687D01*
X422102D01*
Y326914D01*
X422330D01*
Y327142D01*
X422557D01*
Y327370D01*
X422785D01*
Y327597D01*
X423013D01*
Y327825D01*
X423240D01*
Y328053D01*
Y328280D01*
X423696D01*
Y328508D01*
Y328736D01*
X424151D01*
Y328964D01*
X423923D01*
Y329191D01*
X424607D01*
Y329419D01*
X424379D01*
Y329647D01*
X424607D01*
Y329874D01*
X424834D01*
Y330102D01*
X425062D01*
Y330330D01*
X425290D01*
Y330557D01*
X425517D01*
Y330785D01*
X425745D01*
Y331013D01*
X425973D01*
Y331240D01*
X426200D01*
Y331468D01*
X426428D01*
Y331696D01*
X426656D01*
Y331923D01*
X426883D01*
Y332151D01*
X427111D01*
Y332379D01*
X427339D01*
Y332607D01*
X427566D01*
Y332834D01*
X427794D01*
Y333062D01*
X428022D01*
Y333289D01*
X428250D01*
Y333517D01*
X428477D01*
Y333745D01*
X428705D01*
Y333973D01*
Y334200D01*
X429160D01*
Y334428D01*
Y334656D01*
X429616D01*
Y334883D01*
X429388D01*
Y335111D01*
X429843D01*
Y335339D01*
Y335566D01*
X430299D01*
Y335794D01*
Y336022D01*
X430754D01*
Y336250D01*
Y336477D01*
X431209D01*
Y336705D01*
Y336933D01*
X431437D01*
Y337160D01*
X431665D01*
Y337388D01*
X431893D01*
Y337616D01*
X432120D01*
Y337843D01*
X432348D01*
Y338071D01*
X432576D01*
Y338299D01*
X432803D01*
Y338526D01*
X433031D01*
Y338754D01*
X433259D01*
Y338982D01*
X433486D01*
Y339209D01*
X433714D01*
Y339437D01*
X430754D01*
Y339209D01*
X430526D01*
Y338982D01*
X430299D01*
Y338754D01*
X430071D01*
Y338526D01*
X429843D01*
Y338299D01*
X429616D01*
Y338071D01*
X429388D01*
Y337843D01*
X429160D01*
Y337616D01*
X428933D01*
Y337388D01*
X428705D01*
Y337160D01*
X428477D01*
Y336933D01*
X428250D01*
Y336705D01*
X428022D01*
Y336477D01*
X427794D01*
Y336250D01*
X427566D01*
Y336022D01*
X427339D01*
Y335794D01*
X427111D01*
Y335566D01*
X426883D01*
Y335339D01*
X426656D01*
Y335111D01*
X426428D01*
Y334883D01*
X426200D01*
Y334656D01*
X426428D01*
Y334428D01*
X425745D01*
Y334200D01*
Y333973D01*
X425290D01*
Y333745D01*
X425517D01*
Y333517D01*
X425062D01*
Y333289D01*
Y333062D01*
X424379D01*
Y332834D01*
X424607D01*
Y332607D01*
X424379D01*
Y332379D01*
X424151D01*
Y332151D01*
X423923D01*
Y331923D01*
X423696D01*
Y331696D01*
X423468D01*
Y331468D01*
X423240D01*
Y331240D01*
X423013D01*
Y331013D01*
X422785D01*
Y330785D01*
X422557D01*
Y330557D01*
X422330D01*
Y330330D01*
X422102D01*
Y330102D01*
X421874D01*
Y329874D01*
X421647D01*
Y329647D01*
X421419D01*
Y329419D01*
X421191D01*
Y329191D01*
Y328964D01*
X420736D01*
Y328736D01*
Y328508D01*
X420280D01*
Y328280D01*
Y328053D01*
X420053D01*
Y327825D01*
X419825D01*
Y327597D01*
X419597D01*
Y327370D01*
Y327142D01*
X419142D01*
Y326914D01*
Y326687D01*
X418687D01*
Y326459D01*
Y326231D01*
X418459D01*
Y326459D01*
Y326687D01*
X418004D01*
Y326914D01*
Y327142D01*
X417776D01*
Y327370D01*
Y327597D01*
X417548D01*
Y327825D01*
X417321D01*
Y328053D01*
X417093D01*
Y328280D01*
X417548D01*
Y328508D01*
Y328736D01*
X417776D01*
Y328964D01*
X418004D01*
Y329191D01*
X418231D01*
Y329419D01*
X418459D01*
Y329647D01*
X418687D01*
Y329874D01*
X418914D01*
Y330102D01*
X419142D01*
Y330330D01*
X419370D01*
Y330557D01*
X419597D01*
Y330785D01*
X419825D01*
Y331013D01*
X420053D01*
Y331240D01*
X420280D01*
Y331468D01*
X420508D01*
Y331696D01*
X420736D01*
Y331923D01*
X420964D01*
Y332151D01*
X421191D01*
Y332379D01*
X421419D01*
Y332607D01*
Y332834D01*
X421874D01*
Y333062D01*
Y333289D01*
X422330D01*
Y333517D01*
Y333745D01*
X422785D01*
Y333973D01*
X422557D01*
Y334200D01*
X423013D01*
Y334428D01*
Y334656D01*
X423240D01*
Y334883D01*
X423468D01*
Y335111D01*
X423696D01*
Y335339D01*
X423923D01*
Y335566D01*
X424151D01*
Y335794D01*
X424379D01*
Y336022D01*
X424607D01*
Y336250D01*
X424834D01*
Y336477D01*
X425062D01*
Y336705D01*
X425290D01*
Y336933D01*
X425517D01*
Y337160D01*
X425745D01*
Y337388D01*
X425973D01*
Y337616D01*
X426200D01*
Y337843D01*
X426428D01*
Y338071D01*
X426656D01*
Y338299D01*
X426883D01*
Y338526D01*
X427111D01*
Y338754D01*
X427339D01*
Y338982D01*
Y339209D01*
X427794D01*
Y339437D01*
Y339665D01*
X428022D01*
Y339893D01*
Y340120D01*
X428477D01*
Y340348D01*
Y340576D01*
X428933D01*
Y340803D01*
Y341031D01*
X429388D01*
Y341259D01*
Y341486D01*
X435763D01*
Y341714D01*
Y341942D01*
X436446D01*
Y342169D01*
X436219D01*
Y342397D01*
X436446D01*
Y342625D01*
X436674D01*
Y342852D01*
X436902D01*
Y343080D01*
X437129D01*
Y343308D01*
X437357D01*
Y343535D01*
X437585D01*
Y343763D01*
X437812D01*
Y343991D01*
X438040D01*
Y344218D01*
X438268D01*
Y344446D01*
X438495D01*
Y344674D01*
X438723D01*
Y344902D01*
X438951D01*
Y345129D01*
X439179D01*
Y345357D01*
X439406D01*
Y345585D01*
X439634D01*
Y345812D01*
X439862D01*
Y346040D01*
X440089D01*
Y346268D01*
Y346495D01*
X440545D01*
Y346723D01*
Y346951D01*
X441000D01*
Y347178D01*
X440772D01*
Y347406D01*
X441455D01*
Y347634D01*
Y347862D01*
X441911D01*
Y348089D01*
X442138D01*
Y347862D01*
X442366D01*
Y348089D01*
X442594D01*
Y347862D01*
X442822D01*
Y348089D01*
X443049D01*
Y347862D01*
X443277D01*
Y348089D01*
X443505D01*
Y347862D01*
X443732D01*
Y348089D01*
X443960D01*
Y347862D01*
X444188D01*
Y348089D01*
X444415D01*
Y347862D01*
X444643D01*
Y348089D01*
X444871D01*
Y347862D01*
X445098D01*
Y348089D01*
X445326D01*
Y347862D01*
X445554D01*
Y348089D01*
X445782D01*
Y347862D01*
X446009D01*
Y348089D01*
X446237D01*
Y347862D01*
X446465D01*
Y348089D01*
X446692D01*
Y347862D01*
X446920D01*
Y348089D01*
X447148D01*
Y347862D01*
X447375D01*
Y348089D01*
X447603D01*
Y347862D01*
X447831D01*
Y348089D01*
X448058D01*
Y347862D01*
X448286D01*
Y348089D01*
X448514D01*
Y347862D01*
X448741D01*
Y348089D01*
X448969D01*
Y347862D01*
X449197D01*
Y348089D01*
X449425D01*
Y347862D01*
X449652D01*
Y348089D01*
X449880D01*
Y347862D01*
X450107D01*
Y348089D01*
X450335D01*
Y347862D01*
X450563D01*
Y348089D01*
X450791D01*
Y347862D01*
X451018D01*
Y348089D01*
X451246D01*
Y347862D01*
X451474D01*
Y348089D01*
X451701D01*
Y347862D01*
X451929D01*
Y348089D01*
X452157D01*
Y347862D01*
X452384D01*
Y348089D01*
X452612D01*
Y347862D01*
X452840D01*
Y348089D01*
X453068D01*
Y347862D01*
X453295D01*
Y348089D01*
X453523D01*
Y347862D01*
X453750D01*
Y348089D01*
X453978D01*
Y347862D01*
X454206D01*
Y348089D01*
X454434D01*
Y347862D01*
X454661D01*
Y348089D01*
X454889D01*
Y347862D01*
X455117D01*
Y348089D01*
X455344D01*
Y347862D01*
X455572D01*
Y348089D01*
X455800D01*
Y347862D01*
X456027D01*
Y348089D01*
X456255D01*
Y347862D01*
X456483D01*
Y348089D01*
X456710D01*
Y347862D01*
X456938D01*
Y348089D01*
X457166D01*
Y347862D01*
X457393D01*
Y348089D01*
X457621D01*
Y347862D01*
X457849D01*
Y348089D01*
X458077D01*
Y347862D01*
X458304D01*
Y348089D01*
X458532D01*
Y347862D01*
X458760D01*
Y348089D01*
X458987D01*
Y347862D01*
X459215D01*
Y348089D01*
X459443D01*
Y347862D01*
X459670D01*
Y348089D01*
X459898D01*
Y347862D01*
X460126D01*
Y348089D01*
X460353D01*
Y347862D01*
X460581D01*
Y348089D01*
X460809D01*
Y347862D01*
X461036D01*
Y348089D01*
X461264D01*
Y347862D01*
X461492D01*
Y348089D01*
X461720D01*
Y347862D01*
X461947D01*
Y348089D01*
X462175D01*
Y347862D01*
X462403D01*
Y348089D01*
X462630D01*
Y348317D01*
X462858D01*
Y348545D01*
X462630D01*
Y348772D01*
X462858D01*
Y349000D01*
Y349228D01*
X463086D01*
Y349455D01*
Y349683D01*
X463313D01*
Y349911D01*
Y350138D01*
X463769D01*
Y350366D01*
X463541D01*
Y350594D01*
X463769D01*
Y350821D01*
X463996D01*
Y351049D01*
X464224D01*
Y351277D01*
X464452D01*
Y351505D01*
X464679D01*
Y351732D01*
X464907D01*
Y351960D01*
X465590D01*
Y352188D01*
X465818D01*
Y352415D01*
X466501D01*
Y352643D01*
X466729D01*
Y352871D01*
X467867D01*
Y353098D01*
X468095D01*
Y352871D01*
X468322D01*
Y353098D01*
X468550D01*
Y352871D01*
X468778D01*
Y353098D01*
X469006D01*
Y352871D01*
D02*
G37*
G36*
X424834Y370630D02*
X425062D01*
Y370403D01*
X425290D01*
Y370175D01*
X425745D01*
Y369947D01*
Y369720D01*
X426428D01*
Y369492D01*
X426656D01*
Y369264D01*
X426883D01*
Y369036D01*
X427111D01*
Y368809D01*
X427794D01*
Y368581D01*
X428022D01*
Y368353D01*
X428250D01*
Y368126D01*
X428477D01*
Y367898D01*
X428250D01*
Y367670D01*
X428022D01*
Y367443D01*
X427794D01*
Y367215D01*
X427111D01*
Y366987D01*
X426883D01*
Y366760D01*
X426656D01*
Y366532D01*
X426428D01*
Y366304D01*
X425973D01*
Y366077D01*
Y365849D01*
X425290D01*
Y365621D01*
X425062D01*
Y365393D01*
X424834D01*
Y365166D01*
X424607D01*
Y364938D01*
X424379D01*
Y364710D01*
X424151D01*
Y364483D01*
X423923D01*
Y364255D01*
X423696D01*
Y364027D01*
X423468D01*
Y363800D01*
X423240D01*
Y363572D01*
X423013D01*
Y363344D01*
X422785D01*
Y363117D01*
X422557D01*
Y362889D01*
Y362661D01*
X422102D01*
Y362434D01*
X422330D01*
Y362206D01*
X421874D01*
Y361978D01*
Y361750D01*
X421647D01*
Y361523D01*
X421419D01*
Y361295D01*
X421191D01*
Y361067D01*
X420964D01*
Y360840D01*
X420736D01*
Y360612D01*
Y360384D01*
Y360157D01*
X420508D01*
Y359929D01*
X420280D01*
Y359701D01*
X420053D01*
Y359474D01*
X419825D01*
Y359246D01*
X420053D01*
Y359018D01*
X419825D01*
Y358791D01*
X419597D01*
Y358563D01*
X419370D01*
Y358335D01*
Y358107D01*
Y357880D01*
X419142D01*
Y357652D01*
X418914D01*
Y357424D01*
Y357197D01*
Y356969D01*
X418687D01*
Y356741D01*
X418459D01*
Y356514D01*
Y356286D01*
Y356058D01*
X418231D01*
Y355831D01*
X418004D01*
Y355603D01*
X418231D01*
Y355375D01*
X418004D01*
Y355148D01*
X417776D01*
Y354920D01*
Y354692D01*
Y354464D01*
X417548D01*
Y354237D01*
X417776D01*
Y354009D01*
X417548D01*
Y353781D01*
X417321D01*
Y353554D01*
Y353326D01*
Y353098D01*
X417093D01*
Y352871D01*
X417321D01*
Y352643D01*
X417093D01*
Y352415D01*
Y352188D01*
Y351960D01*
X416865D01*
Y351732D01*
Y351505D01*
Y351277D01*
X416637D01*
Y351049D01*
X416865D01*
Y350821D01*
X416637D01*
Y350594D01*
Y350366D01*
Y350138D01*
Y349911D01*
Y349683D01*
X416410D01*
Y349455D01*
Y349228D01*
Y349000D01*
Y348772D01*
Y348545D01*
X416182D01*
Y348317D01*
X416410D01*
Y348089D01*
X416182D01*
Y347862D01*
X416410D01*
Y347634D01*
X416182D01*
Y347406D01*
X416410D01*
Y347178D01*
X416182D01*
Y346951D01*
Y346723D01*
Y346495D01*
X416410D01*
Y346268D01*
X416182D01*
Y346040D01*
Y345812D01*
Y345585D01*
X416410D01*
Y345357D01*
X416182D01*
Y345129D01*
Y344902D01*
Y344674D01*
X416410D01*
Y344446D01*
X416182D01*
Y344218D01*
X416410D01*
Y343991D01*
X416182D01*
Y343763D01*
X416410D01*
Y343535D01*
X416182D01*
Y343308D01*
X416410D01*
Y343080D01*
X416182D01*
Y342852D01*
X416410D01*
Y342625D01*
Y342397D01*
Y342169D01*
Y341942D01*
Y341714D01*
X416637D01*
Y341486D01*
X416410D01*
Y341259D01*
X416182D01*
Y341031D01*
X415954D01*
Y340803D01*
X415727D01*
Y340576D01*
X415499D01*
Y340348D01*
X415271D01*
Y340120D01*
X415499D01*
Y339893D01*
X414816D01*
Y339665D01*
X415044D01*
Y339437D01*
X414361D01*
Y339209D01*
X414588D01*
Y338982D01*
X414133D01*
Y338754D01*
Y338526D01*
X413905D01*
Y338299D01*
X413677D01*
Y338071D01*
X413450D01*
Y337843D01*
X413222D01*
Y337616D01*
X412994D01*
Y337388D01*
X412767D01*
Y337616D01*
X412539D01*
Y337843D01*
X412767D01*
Y338071D01*
X412539D01*
Y338299D01*
Y338526D01*
Y338754D01*
X412311D01*
Y338982D01*
Y339209D01*
Y339437D01*
X412084D01*
Y339665D01*
X412311D01*
Y339893D01*
X412084D01*
Y340120D01*
Y340348D01*
Y340576D01*
Y340803D01*
Y341031D01*
X411856D01*
Y341259D01*
Y341486D01*
Y341714D01*
X411628D01*
Y341942D01*
X411856D01*
Y342169D01*
Y342397D01*
Y342625D01*
X411628D01*
Y342852D01*
X411856D01*
Y343080D01*
X411628D01*
Y343308D01*
X411856D01*
Y343535D01*
X411628D01*
Y343763D01*
X411856D01*
Y343991D01*
X411628D01*
Y344218D01*
Y344446D01*
Y344674D01*
Y344902D01*
Y345129D01*
Y345357D01*
Y345585D01*
Y345812D01*
Y346040D01*
Y346268D01*
Y346495D01*
Y346723D01*
Y346951D01*
Y347178D01*
Y347406D01*
X411856D01*
Y347634D01*
X411628D01*
Y347862D01*
X411856D01*
Y348089D01*
X411628D01*
Y348317D01*
X411856D01*
Y348545D01*
X411628D01*
Y348772D01*
X411856D01*
Y349000D01*
X411628D01*
Y349228D01*
X411856D01*
Y349455D01*
Y349683D01*
Y349911D01*
Y350138D01*
Y350366D01*
X412084D01*
Y350594D01*
X411856D01*
Y350821D01*
X412084D01*
Y351049D01*
Y351277D01*
Y351505D01*
X412311D01*
Y351732D01*
X412084D01*
Y351960D01*
X412311D01*
Y352188D01*
Y352415D01*
Y352643D01*
X412539D01*
Y352871D01*
Y353098D01*
Y353326D01*
X412767D01*
Y353554D01*
X412539D01*
Y353781D01*
X412767D01*
Y354009D01*
Y354237D01*
Y354464D01*
X412994D01*
Y354692D01*
Y354920D01*
Y355148D01*
X413222D01*
Y355375D01*
Y355603D01*
Y355831D01*
X413450D01*
Y356058D01*
Y356286D01*
Y356514D01*
X413677D01*
Y356741D01*
Y356969D01*
Y357197D01*
X413905D01*
Y357424D01*
X414133D01*
Y357652D01*
X413905D01*
Y357880D01*
X414133D01*
Y358107D01*
X414361D01*
Y358335D01*
X414588D01*
Y358563D01*
X414361D01*
Y358791D01*
X414588D01*
Y359018D01*
Y359246D01*
X414816D01*
Y359474D01*
Y359701D01*
X415044D01*
Y359929D01*
X415271D01*
Y360157D01*
X415499D01*
Y360384D01*
X415271D01*
Y360612D01*
X415499D01*
Y360840D01*
X415727D01*
Y361067D01*
X415954D01*
Y361295D01*
X415727D01*
Y361523D01*
X415954D01*
Y361750D01*
X416182D01*
Y361978D01*
X416410D01*
Y362206D01*
Y362434D01*
X416637D01*
Y362661D01*
Y362889D01*
X416865D01*
Y363117D01*
X417093D01*
Y363344D01*
X417321D01*
Y363572D01*
Y363800D01*
X417776D01*
Y364027D01*
X417548D01*
Y364255D01*
X417776D01*
Y364483D01*
X418004D01*
Y364710D01*
X418231D01*
Y364938D01*
X418459D01*
Y365166D01*
X418687D01*
Y365393D01*
X418914D01*
Y365621D01*
X419142D01*
Y365849D01*
X419370D01*
Y366077D01*
X419597D01*
Y366304D01*
Y366532D01*
X420053D01*
Y366760D01*
Y366987D01*
X420280D01*
Y367215D01*
Y367443D01*
X420964D01*
Y367670D01*
X420736D01*
Y367898D01*
X421419D01*
Y368126D01*
X421191D01*
Y368353D01*
X421874D01*
Y368581D01*
Y368809D01*
X422330D01*
Y369036D01*
X422557D01*
Y369264D01*
X422785D01*
Y369492D01*
X423013D01*
Y369720D01*
X423240D01*
Y369947D01*
X423468D01*
Y370175D01*
X423923D01*
Y370403D01*
Y370630D01*
X424607D01*
Y370858D01*
X424834D01*
Y370630D01*
D02*
G37*
G36*
X466501Y326231D02*
X466273D01*
Y326004D01*
X466046D01*
Y325776D01*
X465818D01*
Y325548D01*
Y325321D01*
X465590D01*
Y325093D01*
X465363D01*
Y324865D01*
X465135D01*
Y324637D01*
Y324410D01*
X464679D01*
Y324182D01*
Y323954D01*
X464224D01*
Y323727D01*
Y323499D01*
X463769D01*
Y323271D01*
X463541D01*
Y323044D01*
X463313D01*
Y322816D01*
X463086D01*
Y322588D01*
X462630D01*
Y322361D01*
Y322133D01*
X462175D01*
Y321905D01*
X461947D01*
Y321678D01*
X461720D01*
Y321450D01*
X461492D01*
Y321222D01*
X461264D01*
Y320994D01*
X461036D01*
Y320767D01*
X460353D01*
Y320539D01*
X460126D01*
Y320311D01*
X459898D01*
Y320084D01*
X459670D01*
Y319856D01*
X459443D01*
Y319628D01*
X458760D01*
Y319401D01*
X458532D01*
Y319173D01*
X458304D01*
Y318945D01*
X457621D01*
Y318718D01*
X457393D01*
Y318490D01*
X456710D01*
Y318262D01*
X456483D01*
Y318034D01*
X455800D01*
Y317807D01*
X455572D01*
Y317579D01*
X454889D01*
Y317351D01*
X454661D01*
Y317124D01*
X453978D01*
Y316896D01*
X453295D01*
Y316668D01*
X452612D01*
Y316441D01*
X452384D01*
Y316213D01*
X452157D01*
Y316441D01*
X451929D01*
Y316213D01*
X451246D01*
Y315985D01*
X450563D01*
Y315758D01*
X449880D01*
Y315530D01*
X449652D01*
Y315758D01*
X449425D01*
Y315530D01*
X449197D01*
Y315758D01*
X448969D01*
Y315530D01*
X449197D01*
Y315302D01*
X448969D01*
Y315530D01*
X448741D01*
Y315302D01*
X447603D01*
Y315075D01*
X447375D01*
Y315302D01*
X447148D01*
Y315075D01*
X446920D01*
Y315302D01*
X446692D01*
Y315075D01*
X446009D01*
Y314847D01*
X445782D01*
Y315075D01*
X445554D01*
Y314847D01*
X445326D01*
Y315075D01*
X445098D01*
Y314847D01*
X439862D01*
Y315075D01*
X439634D01*
Y314847D01*
X439406D01*
Y315075D01*
X439179D01*
Y314847D01*
X438951D01*
Y315075D01*
X438268D01*
Y315302D01*
X438040D01*
Y315075D01*
X437812D01*
Y315302D01*
X437585D01*
Y315075D01*
X437357D01*
Y315302D01*
X436219D01*
Y315530D01*
X435536D01*
Y315758D01*
X434397D01*
Y315985D01*
X434169D01*
Y316213D01*
X433942D01*
Y315985D01*
X433714D01*
Y316213D01*
X433031D01*
Y316441D01*
X432803D01*
Y316213D01*
X432576D01*
Y316441D01*
X432348D01*
Y316668D01*
X431665D01*
Y316896D01*
X431437D01*
Y317124D01*
X431209D01*
Y316896D01*
X430982D01*
Y317124D01*
X430299D01*
Y317351D01*
X430071D01*
Y317579D01*
X429388D01*
Y317807D01*
X429160D01*
Y318034D01*
X429388D01*
Y318262D01*
X429616D01*
Y318490D01*
X429843D01*
Y318718D01*
X430071D01*
Y318945D01*
X430299D01*
Y319173D01*
X430526D01*
Y319401D01*
X430754D01*
Y319628D01*
X430982D01*
Y319856D01*
Y320084D01*
X431437D01*
Y320311D01*
Y320539D01*
X431665D01*
Y320767D01*
Y320994D01*
X432120D01*
Y321222D01*
Y321450D01*
X432803D01*
Y321222D01*
X433031D01*
Y320994D01*
X433714D01*
Y320767D01*
X433942D01*
Y320539D01*
X434169D01*
Y320767D01*
X434397D01*
Y320539D01*
X435080D01*
Y320311D01*
X435308D01*
Y320084D01*
X435536D01*
Y320311D01*
X435763D01*
Y320084D01*
X436902D01*
Y319856D01*
X437129D01*
Y320084D01*
X437357D01*
Y319856D01*
X437585D01*
Y319628D01*
X437812D01*
Y319856D01*
X438040D01*
Y319628D01*
X438268D01*
Y319856D01*
X438495D01*
Y319628D01*
X439634D01*
Y319401D01*
X439862D01*
Y319628D01*
X440089D01*
Y319401D01*
X440317D01*
Y319628D01*
X440545D01*
Y319401D01*
X441228D01*
Y319628D01*
X441455D01*
Y319401D01*
X441683D01*
Y319173D01*
X441911D01*
Y319401D01*
X442138D01*
Y319173D01*
X442366D01*
Y319401D01*
X442594D01*
Y319173D01*
X442822D01*
Y319401D01*
X443505D01*
Y319173D01*
X443732D01*
Y319401D01*
X443960D01*
Y319628D01*
X444188D01*
Y319401D01*
X444415D01*
Y319628D01*
X444643D01*
Y319401D01*
X444871D01*
Y319628D01*
X445098D01*
Y319401D01*
X445326D01*
Y319628D01*
X445554D01*
Y319401D01*
X445782D01*
Y319628D01*
X446465D01*
Y319856D01*
X446692D01*
Y319628D01*
X446920D01*
Y319856D01*
X447148D01*
Y319628D01*
X447375D01*
Y319856D01*
X447603D01*
Y320084D01*
X447831D01*
Y319856D01*
X448058D01*
Y320084D01*
X449197D01*
Y320311D01*
X449425D01*
Y320539D01*
X449652D01*
Y320311D01*
X449880D01*
Y320539D01*
X450563D01*
Y320767D01*
X450791D01*
Y320994D01*
X451018D01*
Y320767D01*
X451246D01*
Y320994D01*
X451929D01*
Y321222D01*
X452157D01*
Y321450D01*
X452384D01*
Y321222D01*
X452612D01*
Y321450D01*
X452840D01*
Y321678D01*
X453068D01*
Y321450D01*
X453295D01*
Y321678D01*
X453523D01*
Y321905D01*
X454206D01*
Y322133D01*
X454434D01*
Y322361D01*
X455117D01*
Y322588D01*
X455344D01*
Y322816D01*
X455800D01*
Y323044D01*
Y323271D01*
X456483D01*
Y323499D01*
X456710D01*
Y323727D01*
X457393D01*
Y323954D01*
X457621D01*
Y324182D01*
X457849D01*
Y324410D01*
X458077D01*
Y324637D01*
X458532D01*
Y324865D01*
Y325093D01*
X459215D01*
Y325321D01*
X458987D01*
Y325548D01*
X459670D01*
Y325776D01*
X459898D01*
Y326004D01*
X460126D01*
Y326231D01*
X460353D01*
Y326459D01*
X466501D01*
Y326231D01*
D02*
G37*
%LPC*%
G36*
X432120Y369720D02*
X431893D01*
Y369492D01*
X432120D01*
Y369720D01*
D02*
G37*
G36*
X430982Y368581D02*
X430754D01*
Y368353D01*
X430982D01*
Y368581D01*
D02*
G37*
G36*
X453750Y365849D02*
X452612D01*
Y365621D01*
X452384D01*
Y365849D01*
X452157D01*
Y365621D01*
X451929D01*
Y365393D01*
X451701D01*
Y365166D01*
X451474D01*
Y364938D01*
X451246D01*
Y364710D01*
Y364483D01*
Y364255D01*
X451018D01*
Y364027D01*
X451246D01*
Y363800D01*
Y363572D01*
Y363344D01*
X451474D01*
Y363117D01*
X451246D01*
Y362889D01*
X451474D01*
Y362661D01*
X451701D01*
Y362434D01*
X451929D01*
Y362206D01*
X452157D01*
Y361978D01*
X452384D01*
Y362206D01*
X452612D01*
Y361978D01*
X453750D01*
Y362206D01*
X453978D01*
Y362434D01*
X454434D01*
Y362661D01*
Y362889D01*
X454661D01*
Y363117D01*
X454889D01*
Y363344D01*
X455117D01*
Y363572D01*
X454889D01*
Y363800D01*
X455117D01*
Y364027D01*
X454889D01*
Y364255D01*
X455117D01*
Y364483D01*
X454889D01*
Y364710D01*
X454661D01*
Y364938D01*
Y365166D01*
X454434D01*
Y365393D01*
X453978D01*
Y365621D01*
X453750D01*
Y365849D01*
D02*
G37*
G36*
X486082Y363117D02*
X485854D01*
Y362889D01*
X485627D01*
Y363117D01*
X485399D01*
Y362889D01*
X485171D01*
Y363117D01*
X484944D01*
Y362889D01*
X484716D01*
Y363117D01*
X484488D01*
Y362889D01*
X484716D01*
Y362661D01*
X484488D01*
Y362889D01*
X484261D01*
Y362661D01*
X484033D01*
Y362434D01*
X483578D01*
Y362206D01*
X483122D01*
Y361978D01*
X483350D01*
Y361750D01*
X483122D01*
Y361523D01*
X482895D01*
Y361295D01*
X482667D01*
Y361067D01*
X482895D01*
Y360840D01*
X482667D01*
Y360612D01*
Y360384D01*
Y360157D01*
X482895D01*
Y359929D01*
X482667D01*
Y359701D01*
X482895D01*
Y359474D01*
X482667D01*
Y359246D01*
X482895D01*
Y359018D01*
X483122D01*
Y358791D01*
X483350D01*
Y358563D01*
Y358335D01*
X483805D01*
Y358107D01*
X484033D01*
Y357880D01*
X484716D01*
Y357652D01*
X485399D01*
Y357424D01*
X485627D01*
Y357652D01*
X485854D01*
Y357880D01*
X486082D01*
Y357652D01*
X486310D01*
Y357880D01*
X486538D01*
Y358107D01*
X486765D01*
Y357880D01*
X486993D01*
Y358107D01*
Y358335D01*
X487448D01*
Y358563D01*
Y358791D01*
X487676D01*
Y359018D01*
Y359246D01*
X487904D01*
Y359474D01*
Y359701D01*
Y359929D01*
X488131D01*
Y360157D01*
X487904D01*
Y360384D01*
X488131D01*
Y360612D01*
X487904D01*
Y360840D01*
Y361067D01*
Y361295D01*
X487676D01*
Y361523D01*
X487904D01*
Y361750D01*
X487448D01*
Y361978D01*
Y362206D01*
X487220D01*
Y362434D01*
X486993D01*
Y362661D01*
X486310D01*
Y362889D01*
X486082D01*
Y363117D01*
D02*
G37*
G36*
X438040Y357424D02*
X437812D01*
Y357197D01*
X437129D01*
Y356969D01*
X436902D01*
Y356741D01*
X436219D01*
Y356514D01*
X436446D01*
Y356286D01*
X436219D01*
Y356058D01*
X435991D01*
Y355831D01*
Y355603D01*
Y355375D01*
X435763D01*
Y355148D01*
X435991D01*
Y354920D01*
Y354692D01*
Y354464D01*
X436219D01*
Y354237D01*
X436446D01*
Y354009D01*
Y353781D01*
X436902D01*
Y353554D01*
X437129D01*
Y353326D01*
X438723D01*
Y353554D01*
X438951D01*
Y353781D01*
X439406D01*
Y354009D01*
Y354237D01*
X439634D01*
Y354464D01*
X439862D01*
Y354692D01*
X440089D01*
Y354920D01*
X439862D01*
Y355148D01*
X440089D01*
Y355375D01*
X439862D01*
Y355603D01*
X440089D01*
Y355831D01*
X439862D01*
Y356058D01*
Y356286D01*
X439634D01*
Y356514D01*
Y356741D01*
X439406D01*
Y356969D01*
X439179D01*
Y357197D01*
X438040D01*
Y357424D01*
D02*
G37*
G36*
X469689Y350821D02*
X469461D01*
Y350594D01*
X469233D01*
Y350821D01*
X468550D01*
Y350594D01*
X468322D01*
Y350821D01*
X468095D01*
Y350594D01*
X467867D01*
Y350821D01*
X467640D01*
Y350594D01*
X467412D01*
Y350366D01*
X466729D01*
Y350138D01*
X466501D01*
Y349911D01*
X465818D01*
Y349683D01*
X466046D01*
Y349455D01*
X465363D01*
Y349228D01*
X465590D01*
Y349000D01*
X465363D01*
Y348772D01*
X465135D01*
Y348545D01*
X464907D01*
Y348317D01*
X465135D01*
Y348089D01*
X464907D01*
Y347862D01*
Y347634D01*
Y347406D01*
X464679D01*
Y347178D01*
X464907D01*
Y346951D01*
X464679D01*
Y346723D01*
X464907D01*
Y346495D01*
Y346268D01*
Y346040D01*
Y345812D01*
Y345585D01*
X465135D01*
Y345357D01*
Y345129D01*
X465363D01*
Y344902D01*
Y344674D01*
X465590D01*
Y344446D01*
X465818D01*
Y344218D01*
X466046D01*
Y343991D01*
X466273D01*
Y343763D01*
X466956D01*
Y343535D01*
X467184D01*
Y343308D01*
X468322D01*
Y343080D01*
X468550D01*
Y343308D01*
X468778D01*
Y343080D01*
X469006D01*
Y343308D01*
X470144D01*
Y343535D01*
X470372D01*
Y343763D01*
X471055D01*
Y343991D01*
Y344218D01*
X471510D01*
Y344446D01*
Y344674D01*
X471738D01*
Y344902D01*
Y345129D01*
X471965D01*
Y345357D01*
Y345585D01*
X472193D01*
Y345812D01*
Y346040D01*
X472421D01*
Y346268D01*
X472193D01*
Y346495D01*
X472421D01*
Y346723D01*
X472193D01*
Y346951D01*
X472421D01*
Y347178D01*
X472193D01*
Y347406D01*
X472421D01*
Y347634D01*
X472193D01*
Y347862D01*
X472421D01*
Y348089D01*
X472193D01*
Y348317D01*
X471965D01*
Y348545D01*
Y348772D01*
Y349000D01*
X471738D01*
Y349228D01*
X471510D01*
Y349455D01*
X471282D01*
Y349683D01*
X471055D01*
Y349911D01*
X470827D01*
Y350138D01*
X470599D01*
Y350366D01*
X469916D01*
Y350594D01*
X469689D01*
Y350821D01*
D02*
G37*
G36*
X437357Y340348D02*
X437129D01*
Y340120D01*
X437357D01*
Y340348D01*
D02*
G37*
G36*
X486765Y333745D02*
X486538D01*
Y333517D01*
X486310D01*
Y333745D01*
X485627D01*
Y333517D01*
X485399D01*
Y333745D01*
X485171D01*
Y333517D01*
X484488D01*
Y333289D01*
X484261D01*
Y333062D01*
X484033D01*
Y332834D01*
X483805D01*
Y332607D01*
X483578D01*
Y332379D01*
Y332151D01*
X483350D01*
Y331923D01*
Y331696D01*
X483122D01*
Y331468D01*
X483350D01*
Y331240D01*
X483122D01*
Y331013D01*
X483350D01*
Y330785D01*
X483122D01*
Y330557D01*
X483350D01*
Y330330D01*
Y330102D01*
Y329874D01*
X483578D01*
Y329647D01*
X483805D01*
Y329419D01*
Y329191D01*
X484261D01*
Y328964D01*
X484488D01*
Y328736D01*
X484716D01*
Y328508D01*
X485399D01*
Y328280D01*
X486082D01*
Y328508D01*
X486310D01*
Y328280D01*
X486538D01*
Y328508D01*
X486765D01*
Y328736D01*
X486993D01*
Y328508D01*
X487220D01*
Y328736D01*
X487448D01*
Y328964D01*
X487676D01*
Y329191D01*
X487904D01*
Y329419D01*
X488131D01*
Y329647D01*
X488359D01*
Y329874D01*
Y330102D01*
Y330330D01*
X488587D01*
Y330557D01*
Y330785D01*
Y331013D01*
X488814D01*
Y331240D01*
X488587D01*
Y331468D01*
Y331696D01*
Y331923D01*
X488359D01*
Y332151D01*
X488131D01*
Y332379D01*
X488359D01*
Y332607D01*
X488131D01*
Y332834D01*
X487904D01*
Y333062D01*
X487676D01*
Y333289D01*
X487448D01*
Y333517D01*
X486765D01*
Y333745D01*
D02*
G37*
G36*
X450335Y332379D02*
X450107D01*
Y332151D01*
X449880D01*
Y332379D01*
X449652D01*
Y332151D01*
X448969D01*
Y331923D01*
X449197D01*
Y331696D01*
X448969D01*
Y331468D01*
X448741D01*
Y331240D01*
Y331013D01*
Y330785D01*
X448969D01*
Y330557D01*
X449197D01*
Y330330D01*
Y330102D01*
X449652D01*
Y329874D01*
X449880D01*
Y330102D01*
X450563D01*
Y330330D01*
X450791D01*
Y330557D01*
X451018D01*
Y330785D01*
Y331013D01*
Y331240D01*
X451246D01*
Y331468D01*
X451018D01*
Y331696D01*
X450791D01*
Y331923D01*
X450563D01*
Y332151D01*
X450335D01*
Y332379D01*
D02*
G37*
%LPD*%
D10*
X198414Y261000D02*
G03*
X198414Y261000I-1414J0D01*
G01*
D11*
X115962Y501575D02*
G03*
X185933Y492363I36438J6425D01*
G01*
X630550Y171100D02*
G03*
X630550Y158400I0J-6350D01*
G01*
X63500Y303900D02*
Y354700D01*
X12700Y303900D02*
X63500D01*
X12700D02*
Y354700D01*
X63500D01*
X12700Y459740D02*
Y510540D01*
X88900D01*
Y459740D02*
Y510540D01*
X12700Y459740D02*
X88900D01*
X12700Y373380D02*
X88900D01*
Y424180D01*
X12700D02*
X88900D01*
X12700Y373380D02*
Y424180D01*
X624000Y255000D02*
X659000D01*
X623000Y315000D02*
X658000D01*
X610000Y277000D02*
Y292000D01*
X670000Y276000D02*
Y294000D01*
X210000Y76000D02*
X228000D01*
X212000Y16000D02*
X227000D01*
X189000Y29000D02*
Y64000D01*
X249000Y30000D02*
Y65000D01*
X32370Y241000D02*
X36370D01*
X33370Y161000D02*
X36370D01*
X-4630Y241000D02*
X10370D01*
X-4630Y161000D02*
Y241000D01*
Y161000D02*
X8370D01*
X370Y162000D02*
Y241000D01*
X7370Y162000D02*
Y241000D01*
X8370Y161000D02*
X10370D01*
X51370Y218000D02*
Y222000D01*
Y180000D02*
Y183000D01*
X-9630Y152000D02*
Y251000D01*
X-18630Y152000D02*
X-9630D01*
X-18630Y251000D02*
X-9630D01*
X-8630Y236000D02*
X-7630D01*
X-9630Y171000D02*
X-7630D01*
X-22630Y204000D02*
X-9630D01*
X-10630D02*
X-9630D01*
X-10630D02*
X-10630D01*
X-10630D02*
X-10630D01*
X-13630Y207000D02*
X-10630Y204000D01*
X-13630Y201000D02*
X-10630Y204000D01*
X650240Y495300D02*
Y520700D01*
X441960Y495300D02*
X650240D01*
X441960Y520700D02*
X650240D01*
X441960Y495300D02*
Y520700D01*
X103200Y75300D02*
X180200D01*
X103200Y100700D02*
X180200D01*
X103200Y75300D02*
Y100700D01*
X180200Y75300D02*
Y100700D01*
X133300Y355000D02*
X158700D01*
X133300Y461240D02*
X158700D01*
Y355000D02*
Y461240D01*
X133300Y355000D02*
Y461240D01*
X431800Y495300D02*
Y520700D01*
X172720Y495300D02*
X431800D01*
X172720D02*
Y520700D01*
X431800D01*
X483560Y10300D02*
X641040D01*
X483560Y35700D02*
X641040D01*
X483560Y10300D02*
Y35700D01*
X641040Y10300D02*
Y35700D01*
X264160Y10300D02*
Y35700D01*
X472440D01*
X264160Y10300D02*
X472440D01*
Y35700D01*
X649300Y405000D02*
Y482000D01*
X674700Y405000D02*
Y482000D01*
X649300D02*
X674700D01*
X649300Y405000D02*
X674700D01*
X273000D02*
X305000D01*
Y423000D01*
X273000D02*
X305000D01*
X273000Y405000D02*
Y423000D01*
X189000Y333000D02*
Y335000D01*
X187000D02*
X189000D01*
X119000D02*
X121000D01*
X119000Y333000D02*
Y335000D01*
Y265000D02*
Y267000D01*
Y265000D02*
X121000D01*
X188000Y264000D02*
X189000Y265000D01*
X188000Y264000D02*
X190000Y266000D01*
X19000Y263000D02*
Y301000D01*
X5000Y263000D02*
X19000D01*
X5000D02*
Y301000D01*
X592000Y236000D02*
X630000D01*
Y250000D01*
X592000D02*
X630000D01*
X564000Y363000D02*
X594000D01*
Y377000D01*
X564000D02*
X594000D01*
X564000Y363000D02*
Y377000D01*
X561000Y363000D02*
Y377000D01*
X564000D01*
X561000Y363000D02*
X564000D01*
X240000Y427000D02*
X243000D01*
X240000Y441000D02*
X243000D01*
X240000Y427000D02*
Y441000D01*
X243000Y427000D02*
Y441000D01*
X273000D01*
Y427000D02*
Y441000D01*
X243000Y427000D02*
X273000D01*
X240000Y406000D02*
X270000D01*
Y420000D01*
X240000D02*
X270000D01*
X240000Y406000D02*
Y420000D01*
X237000Y406000D02*
Y420000D01*
X240000D01*
X237000Y406000D02*
X240000D01*
X237000Y386000D02*
X240000D01*
X237000Y400000D02*
X240000D01*
X237000Y386000D02*
Y400000D01*
X240000Y386000D02*
Y400000D01*
X270000D01*
Y386000D02*
Y400000D01*
X240000Y386000D02*
X270000D01*
X210000Y165000D02*
X228000D01*
X210000Y133000D02*
X228000D01*
Y146000D02*
Y153000D01*
X258000Y98000D02*
X290000D01*
X258000Y80000D02*
Y98000D01*
Y80000D02*
X290000D01*
Y98000D01*
X246000Y133000D02*
X264000D01*
X246000D02*
Y165000D01*
X264000D01*
Y133000D02*
Y165000D01*
X258000Y44000D02*
Y76000D01*
Y44000D02*
X276000D01*
Y76000D01*
X258000D02*
X276000D01*
X223000Y92000D02*
Y128000D01*
Y92000D02*
X243000D01*
Y103125D02*
Y128000D01*
Y92000D02*
Y103125D01*
X223000Y128000D02*
X243000D01*
X209000Y170000D02*
Y206000D01*
Y170000D02*
X229000D01*
Y181125D02*
Y206000D01*
Y170000D02*
Y181125D01*
X209000Y206000D02*
X229000D01*
X181000Y378000D02*
Y410000D01*
X163000D02*
X181000D01*
X163000Y378000D02*
Y410000D01*
Y378000D02*
X181000D01*
X274000Y384000D02*
X306000D01*
Y402000D01*
X274000D02*
X306000D01*
X274000Y384000D02*
Y402000D01*
X81000Y284000D02*
X99000D01*
Y252000D02*
Y284000D01*
X81000Y252000D02*
X99000D01*
X81000D02*
Y284000D01*
X67000Y357000D02*
X99000D01*
X67000Y339000D02*
Y357000D01*
Y339000D02*
X99000D01*
Y357000D01*
X87000Y202000D02*
Y220000D01*
X119000D01*
Y202000D02*
Y220000D01*
X87000Y202000D02*
X119000D01*
X80000Y182000D02*
X112000D01*
Y200000D01*
X80000D02*
X112000D01*
X80000Y182000D02*
Y200000D01*
Y162000D02*
Y180000D01*
X112000D01*
Y162000D02*
Y180000D01*
X80000Y162000D02*
X112000D01*
X227000Y257000D02*
Y289000D01*
X209000D02*
X227000D01*
X209000Y257000D02*
Y289000D01*
Y257000D02*
X227000D01*
X604000Y453500D02*
X622000D01*
X604000D02*
Y485500D01*
X622000D01*
Y453500D02*
Y485500D01*
X601000Y453000D02*
Y485000D01*
X583000D02*
X601000D01*
X583000Y453000D02*
Y485000D01*
Y453000D02*
X601000D01*
X629000Y408000D02*
X647000D01*
X629000D02*
Y440000D01*
X647000D01*
Y408000D02*
Y440000D01*
X353000Y108000D02*
X385000D01*
X353000Y90000D02*
Y108000D01*
Y90000D02*
X385000D01*
Y108000D01*
X595000Y218000D02*
Y236000D01*
X627000D01*
Y218000D02*
Y236000D01*
X595000Y218000D02*
X627000D01*
X240000Y463000D02*
X272000D01*
X240000Y445000D02*
Y463000D01*
Y445000D02*
X272000D01*
Y463000D01*
X431000Y223000D02*
Y241000D01*
X399000Y223000D02*
X431000D01*
X399000D02*
Y241000D01*
X431000D01*
X561000Y360000D02*
X593000D01*
X561000Y342000D02*
Y360000D01*
Y342000D02*
X593000D01*
Y360000D01*
X661000Y182000D02*
X679000D01*
X661000D02*
Y214000D01*
X679000D01*
Y182000D02*
Y214000D01*
X39000Y267500D02*
Y299500D01*
X21000D02*
X39000D01*
X21000Y267500D02*
Y299500D01*
Y267500D02*
X39000D01*
X661000Y249000D02*
X679000D01*
Y217000D02*
Y249000D01*
X661000Y217000D02*
X679000D01*
X661000D02*
Y249000D01*
X7000Y244000D02*
X39000D01*
Y262000D01*
X7000D02*
X39000D01*
X7000Y244000D02*
Y262000D01*
X640000Y248500D02*
X658000D01*
Y216500D02*
Y248500D01*
X640000Y216500D02*
X658000D01*
X640000D02*
Y248500D01*
X124000Y205000D02*
Y223000D01*
X156000D01*
Y205000D02*
Y223000D01*
X124000Y205000D02*
X156000D01*
X319000Y60000D02*
Y92000D01*
Y60000D02*
X337000D01*
Y92000D01*
X319000D02*
X337000D01*
X319000Y73000D02*
X337000D01*
Y41000D02*
Y73000D01*
X319000Y41000D02*
X337000D01*
X319000D02*
Y73000D01*
X79000Y201000D02*
Y227000D01*
X65000Y201000D02*
X79000D01*
X65000D02*
Y227000D01*
X79000D01*
X64000Y174000D02*
X78000D01*
Y200000D01*
X64000D02*
X78000D01*
X64000Y174000D02*
Y200000D01*
X208000Y243000D02*
X228000D01*
Y207000D02*
Y218125D01*
Y243000D01*
X208000Y207000D02*
X228000D01*
X208000D02*
Y243000D01*
X206000Y207000D02*
Y243000D01*
X186000D02*
X206000D01*
X186000Y207000D02*
Y231875D01*
Y243000D01*
Y207000D02*
X206000D01*
X208000Y327000D02*
X228000D01*
Y291000D02*
Y302125D01*
Y327000D01*
X208000Y291000D02*
X228000D01*
X208000D02*
Y327000D01*
X183000Y209000D02*
Y245000D01*
X163000D02*
X183000D01*
X163000Y209000D02*
Y233875D01*
Y245000D01*
Y209000D02*
X183000D01*
X156000Y224000D02*
Y244000D01*
X120000Y224000D02*
X131125D01*
X156000D01*
X120000D02*
Y244000D01*
X156000D01*
X13000Y424000D02*
Y460000D01*
Y424000D02*
X33000D01*
Y435125D02*
Y460000D01*
Y424000D02*
Y435125D01*
X13000Y460000D02*
X33000D01*
X268000Y338000D02*
Y358000D01*
X232000Y338000D02*
X243125D01*
X268000D01*
X232000D02*
Y358000D01*
X268000D01*
X232000Y251000D02*
X268000D01*
X232000Y231000D02*
Y251000D01*
X243125Y231000D02*
X268000D01*
X232000D02*
X243125D01*
X268000D02*
Y251000D01*
X627000Y445000D02*
X647000D01*
X627000Y469875D02*
Y481000D01*
Y445000D02*
Y469875D01*
Y481000D02*
X647000D01*
Y445000D02*
Y481000D01*
X105000Y107000D02*
Y143000D01*
Y107000D02*
X125000D01*
Y118125D02*
Y143000D01*
Y107000D02*
Y118125D01*
X105000Y143000D02*
X125000D01*
X200000Y128000D02*
X220000D01*
Y92000D02*
Y103125D01*
Y128000D01*
X200000Y92000D02*
X220000D01*
X200000D02*
Y128000D01*
X376000Y61000D02*
X412000D01*
X376000Y41000D02*
Y61000D01*
X387125Y41000D02*
X412000D01*
X376000D02*
X387125D01*
X412000D02*
Y61000D01*
X295000Y75000D02*
X315000D01*
Y39000D02*
Y50125D01*
Y75000D01*
X295000Y39000D02*
X315000D01*
X295000D02*
Y75000D01*
X344000Y39000D02*
Y75000D01*
Y39000D02*
X364000D01*
Y50125D02*
Y75000D01*
Y39000D02*
Y50125D01*
X344000Y75000D02*
X364000D01*
X51000Y512000D02*
Y532000D01*
X15000Y512000D02*
X26125D01*
X51000D01*
X15000D02*
Y532000D01*
X51000D01*
X455000Y67000D02*
X491000D01*
Y87000D01*
X455000D02*
X479875D01*
X491000D01*
X455000Y67000D02*
Y87000D01*
X439000Y223000D02*
Y243000D01*
X463875D02*
X475000D01*
X439000D02*
X463875D01*
X475000Y223000D02*
Y243000D01*
X439000Y223000D02*
X475000D01*
X233000Y494000D02*
X269000D01*
X233000Y474000D02*
Y494000D01*
X244125Y474000D02*
X269000D01*
X233000D02*
X244125D01*
X269000D02*
Y494000D01*
X390000Y69000D02*
Y89000D01*
X414875D02*
X426000D01*
X390000D02*
X414875D01*
X426000Y69000D02*
Y89000D01*
X390000Y69000D02*
X426000D01*
X390000Y89000D02*
X426000D01*
Y109000D01*
X390000D02*
X414875D01*
X426000D01*
X390000Y89000D02*
Y109000D01*
X432500Y89000D02*
Y109000D01*
X457375D02*
X468500D01*
X432500D02*
X457375D01*
X468500Y89000D02*
Y109000D01*
X432500Y89000D02*
X468500D01*
X396000Y246000D02*
X432000D01*
Y266000D01*
X396000D02*
X420875D01*
X432000D01*
X396000Y246000D02*
Y266000D01*
X213000Y427000D02*
X233000D01*
X213000Y451875D02*
Y463000D01*
Y427000D02*
Y451875D01*
Y463000D02*
X233000D01*
Y427000D02*
Y463000D01*
X439000Y266000D02*
X475000D01*
X439000Y246000D02*
Y266000D01*
X450125Y246000D02*
X475000D01*
X439000D02*
X450125D01*
X475000D02*
Y266000D01*
X679000Y116000D02*
Y136000D01*
X643000Y116000D02*
X654125D01*
X679000D01*
X643000D02*
Y136000D01*
X679000D01*
X77000Y284000D02*
Y304000D01*
X41000Y284000D02*
X52125D01*
X77000D01*
X41000D02*
Y304000D01*
X77000D01*
X81000Y242000D02*
X117000D01*
X81000Y222000D02*
Y242000D01*
X92125Y222000D02*
X117000D01*
X81000D02*
X92125D01*
X117000D02*
Y242000D01*
X640000Y178500D02*
X660000D01*
X640000Y203375D02*
Y214500D01*
Y178500D02*
Y203375D01*
Y214500D02*
X660000D01*
Y178500D02*
Y214500D01*
X596000Y319000D02*
Y339000D01*
X560000Y319000D02*
X571125D01*
X596000D01*
X560000D02*
Y339000D01*
X596000D01*
X207000Y170000D02*
Y206000D01*
X187000D02*
X207000D01*
X187000Y170000D02*
Y194875D01*
Y206000D01*
Y170000D02*
X207000D01*
X455000Y45000D02*
Y65000D01*
X479875D02*
X491000D01*
X455000D02*
X479875D01*
X491000Y45000D02*
Y65000D01*
X455000Y45000D02*
X491000D01*
X452000Y50000D02*
Y86000D01*
X432000D02*
X452000D01*
X432000Y50000D02*
Y74875D01*
Y86000D01*
Y50000D02*
X452000D01*
X280550Y112100D02*
Y218100D01*
X630550D01*
Y171450D02*
Y218100D01*
X280550Y112100D02*
X630550D01*
Y158100D01*
X44500Y22500D02*
Y67500D01*
X59500D01*
X84500D02*
X99500D01*
Y22500D02*
Y67500D01*
X54500Y12500D02*
X59500D01*
X44500Y22500D02*
X54500Y12500D01*
X84500D02*
X89500D01*
X99500Y22500D01*
X6000Y109000D02*
X39000D01*
Y49000D02*
Y109000D01*
X6000Y49000D02*
X39000D01*
X6000D02*
Y109000D01*
X46500Y101500D02*
Y146500D01*
X61500D01*
X86500D02*
X101500D01*
Y101500D02*
Y146500D01*
X56500Y91500D02*
X61500D01*
X46500Y101500D02*
X56500Y91500D01*
X86500D02*
X91500D01*
X101500Y101500D01*
X658000Y148000D02*
X665000D01*
X645000D02*
Y166000D01*
X677000Y148000D02*
Y166000D01*
X42000Y254000D02*
Y272000D01*
X74000Y254000D02*
Y272000D01*
X54000D02*
X61000D01*
X199000Y442000D02*
Y449000D01*
X181000Y429000D02*
X199000D01*
X181000Y461000D02*
X199000D01*
X231000Y253000D02*
X269000D01*
X231000D02*
Y336000D01*
X269000D01*
Y253000D02*
Y336000D01*
X129000Y127000D02*
X131000D01*
X195000D02*
X197000D01*
Y165000D01*
X184000D02*
X197000D01*
X129000D02*
X142000D01*
X129000Y127000D02*
Y165000D01*
X477000Y268000D02*
Y306000D01*
X394000Y268000D02*
X477000D01*
X394000D02*
Y306000D01*
X477000D01*
X279000Y438997D02*
Y432333D01*
X280333Y431000D01*
X282999D01*
X284332Y432333D01*
Y438997D01*
X225000Y416997D02*
X230332D01*
X227666D01*
Y409000D01*
X225000Y388000D02*
Y395997D01*
X228999D01*
X230332Y394664D01*
Y391999D01*
X228999Y390666D01*
X225000D01*
X227666D02*
X230332Y388000D01*
X549000Y100332D02*
Y95000D01*
X543668Y100332D01*
X542336D01*
X541003Y98999D01*
Y96333D01*
X542336Y95000D01*
X541003Y108329D02*
Y102997D01*
X545001D01*
X543668Y105663D01*
Y106996D01*
X545001Y108329D01*
X547667D01*
X549000Y106996D01*
Y104330D01*
X547667Y102997D01*
X320000Y97000D02*
Y99666D01*
Y98333D01*
X312003D01*
X313335Y97000D01*
X312003Y108996D02*
X313335Y106330D01*
X316001Y103665D01*
X318667D01*
X320000Y104997D01*
Y107663D01*
X318667Y108996D01*
X317334D01*
X316001Y107663D01*
Y103665D01*
X395000Y223000D02*
Y225666D01*
Y224333D01*
X387003D01*
X388335Y223000D01*
Y229664D02*
X387003Y230997D01*
Y233663D01*
X388335Y234996D01*
X393667D01*
X395000Y233663D01*
Y230997D01*
X393667Y229664D01*
X388335D01*
X516003Y230332D02*
Y225000D01*
X520001D01*
X518668Y227666D01*
Y228999D01*
X520001Y230332D01*
X522667D01*
X524000Y228999D01*
Y226333D01*
X522667Y225000D01*
X7999Y313000D02*
Y320997D01*
X4000Y316999D01*
X9332D01*
X4000Y345664D02*
X5333Y346997D01*
X7999D01*
X9332Y345664D01*
Y344332D01*
X7999Y342999D01*
X6666D01*
X7999D01*
X9332Y341666D01*
Y340333D01*
X7999Y339000D01*
X5333D01*
X4000Y340333D01*
X73332Y312000D02*
X68000D01*
X73332Y317332D01*
Y318664D01*
X71999Y319997D01*
X69333D01*
X68000Y318664D01*
X43000Y436997D02*
X45666D01*
X44333D01*
Y429000D01*
X43000D01*
X45666D01*
X54996Y435664D02*
X53663Y436997D01*
X50997D01*
X49665Y435664D01*
Y430333D01*
X50997Y429000D01*
X53663D01*
X54996Y430333D01*
X62993Y435664D02*
X61661Y436997D01*
X58995D01*
X57662Y435664D01*
Y434332D01*
X58995Y432999D01*
X61661D01*
X62993Y431666D01*
Y430333D01*
X61661Y429000D01*
X58995D01*
X57662Y430333D01*
X65659Y429000D02*
Y436997D01*
X69658D01*
X70991Y435664D01*
Y432999D01*
X69658Y431666D01*
X65659D01*
X73657Y429000D02*
X76323D01*
X74990D01*
Y436997D01*
X73657Y435664D01*
X64000Y522997D02*
X66666D01*
X65333D01*
Y515000D01*
X64000D01*
X66666D01*
X75996Y521665D02*
X74663Y522997D01*
X71997D01*
X70665Y521665D01*
Y516333D01*
X71997Y515000D01*
X74663D01*
X75996Y516333D01*
X83994Y521665D02*
X82661Y522997D01*
X79995D01*
X78662Y521665D01*
Y520332D01*
X79995Y518999D01*
X82661D01*
X83994Y517666D01*
Y516333D01*
X82661Y515000D01*
X79995D01*
X78662Y516333D01*
X86659Y515000D02*
Y522997D01*
X90658D01*
X91991Y521665D01*
Y518999D01*
X90658Y517666D01*
X86659D01*
X592000Y266000D02*
X584003D01*
Y269999D01*
X585336Y271332D01*
X588001D01*
X589334Y269999D01*
Y266000D01*
Y268666D02*
X592000Y271332D01*
X584003Y279329D02*
Y273997D01*
X592000D01*
Y279329D01*
X588001Y273997D02*
Y276663D01*
X585336Y287327D02*
X584003Y285994D01*
Y283328D01*
X585336Y281995D01*
X586668D01*
X588001Y283328D01*
Y285994D01*
X589334Y287327D01*
X590667D01*
X592000Y285994D01*
Y283328D01*
X590667Y281995D01*
X584003Y295324D02*
Y289992D01*
X592000D01*
Y295324D01*
X588001Y289992D02*
Y292658D01*
X584003Y297990D02*
Y303321D01*
Y300655D01*
X592000D01*
X177003Y38000D02*
X183667D01*
X185000Y39333D01*
Y41999D01*
X183667Y43332D01*
X177003D01*
X178335Y51329D02*
X177003Y49996D01*
Y47330D01*
X178335Y45997D01*
X179668D01*
X181001Y47330D01*
Y49996D01*
X182334Y51329D01*
X183667D01*
X185000Y49996D01*
Y47330D01*
X183667Y45997D01*
X177003Y59326D02*
Y53995D01*
X185000D01*
Y59326D01*
X181001Y53995D02*
Y56661D01*
X185000Y61992D02*
X177003D01*
Y65991D01*
X178335Y67324D01*
X181001D01*
X182334Y65991D01*
Y61992D01*
Y64658D02*
X185000Y67324D01*
X111668Y71999D02*
X109003D01*
X110336D01*
Y65334D01*
X109003Y64001D01*
X107670D01*
X106337Y65334D01*
X114334Y64001D02*
Y71999D01*
X118333D01*
X119666Y70666D01*
Y68000D01*
X118333Y66667D01*
X114334D01*
X126330Y64001D02*
Y71999D01*
X122332Y68000D01*
X127663D01*
X108336Y465998D02*
X105003D01*
X106669D01*
Y457668D01*
X105003Y456002D01*
X103337D01*
X101671Y457668D01*
X111668Y456002D02*
Y465998D01*
X116666D01*
X118332Y464332D01*
Y461000D01*
X116666Y459334D01*
X111668D01*
X121664Y464332D02*
X123331Y465998D01*
X126663D01*
X128329Y464332D01*
Y462666D01*
X126663Y461000D01*
X124997D01*
X126663D01*
X128329Y459334D01*
Y457668D01*
X126663Y456002D01*
X123331D01*
X121664Y457668D01*
X13668Y365999D02*
X11003D01*
X12335D01*
Y359334D01*
X11003Y358001D01*
X9670D01*
X8337Y359334D01*
X16334Y358001D02*
Y365999D01*
X20333D01*
X21666Y364666D01*
Y362000D01*
X20333Y360667D01*
X16334D01*
X29663Y358001D02*
X24332D01*
X29663Y363333D01*
Y364666D01*
X28330Y365999D01*
X25665D01*
X24332Y364666D01*
X656905Y499963D02*
X653572D01*
X655238D01*
Y491632D01*
X653572Y489966D01*
X651906D01*
X650240Y491632D01*
X660237Y489966D02*
Y499963D01*
X665235D01*
X666901Y498297D01*
Y494964D01*
X665235Y493298D01*
X660237D01*
X670234Y489966D02*
X673566D01*
X671900D01*
Y499963D01*
X670234Y498297D01*
X49334Y83998D02*
X46002D01*
X47668D01*
Y75668D01*
X46002Y74002D01*
X44335D01*
X42669Y75668D01*
X52666Y82332D02*
X54332Y83998D01*
X57664D01*
X59331Y82332D01*
Y80666D01*
X57664Y79000D01*
X59331Y77334D01*
Y75668D01*
X57664Y74002D01*
X54332D01*
X52666Y75668D01*
Y77334D01*
X54332Y79000D01*
X52666Y80666D01*
Y82332D01*
X54332Y79000D02*
X57664D01*
X51667Y157999D02*
X49001D01*
X50334D01*
Y151334D01*
X49001Y150001D01*
X47668D01*
X46336Y151334D01*
X54333Y157999D02*
X59665D01*
Y156666D01*
X54333Y151334D01*
Y150001D01*
X100334Y408998D02*
X97002D01*
X98668D01*
Y400668D01*
X97002Y399002D01*
X95336D01*
X93669Y400668D01*
X110331Y408998D02*
X106998Y407332D01*
X103666Y404000D01*
Y400668D01*
X105332Y399002D01*
X108665D01*
X110331Y400668D01*
Y402334D01*
X108665Y404000D01*
X103666D01*
X99334Y498998D02*
X96002D01*
X97668D01*
Y490668D01*
X96002Y489002D01*
X94335D01*
X92669Y490668D01*
X109331Y498998D02*
X102666D01*
Y494000D01*
X105998Y495666D01*
X107664D01*
X109331Y494000D01*
Y490668D01*
X107664Y489002D01*
X104332D01*
X102666Y490668D01*
X196334Y490998D02*
X193002D01*
X194668D01*
Y482668D01*
X193002Y481002D01*
X191336D01*
X189669Y482668D01*
X204664Y481002D02*
Y490998D01*
X199666Y486000D01*
X206331D01*
X449334Y489998D02*
X446002D01*
X447668D01*
Y481668D01*
X446002Y480002D01*
X444336D01*
X442669Y481668D01*
X452666Y488332D02*
X454332Y489998D01*
X457664D01*
X459331Y488332D01*
Y486666D01*
X457664Y485000D01*
X455998D01*
X457664D01*
X459331Y483334D01*
Y481668D01*
X457664Y480002D01*
X454332D01*
X452666Y481668D01*
X505334Y48998D02*
X502002D01*
X503668D01*
Y40668D01*
X502002Y39002D01*
X500336D01*
X498669Y40668D01*
X515331Y39002D02*
X508666D01*
X515331Y45666D01*
Y47332D01*
X513665Y48998D01*
X510332D01*
X508666Y47332D01*
X424000Y48998D02*
X420668D01*
X422334D01*
Y40668D01*
X420668Y39002D01*
X419002D01*
X417336Y40668D01*
X427332Y39002D02*
X430664D01*
X428998D01*
Y48998D01*
X427332Y47332D01*
D12*
X8000Y302000D02*
X16000D01*
X591000Y239000D02*
Y247000D01*
D13*
X401725Y427511D02*
Y415513D01*
Y427511D02*
X405724D01*
X407438Y426939D01*
X408581Y425797D01*
X409152Y424654D01*
X409723Y422940D01*
Y420084D01*
X409152Y418370D01*
X408581Y417227D01*
X407438Y416085D01*
X405724Y415513D01*
X401725D01*
X412408Y420084D02*
X419264D01*
Y421226D01*
X418693Y422369D01*
X418121Y422940D01*
X416979Y423512D01*
X415265D01*
X414122Y422940D01*
X412980Y421798D01*
X412408Y420084D01*
Y418941D01*
X412980Y417227D01*
X414122Y416085D01*
X415265Y415513D01*
X416979D01*
X418121Y416085D01*
X419264Y417227D01*
X428119Y421798D02*
X427548Y422940D01*
X425834Y423512D01*
X424120D01*
X422406Y422940D01*
X421835Y421798D01*
X422406Y420655D01*
X423549Y420084D01*
X426405Y419512D01*
X427548Y418941D01*
X428119Y417799D01*
Y417227D01*
X427548Y416085D01*
X425834Y415513D01*
X424120D01*
X422406Y416085D01*
X421835Y417227D01*
X431776Y427511D02*
X432347Y426939D01*
X432918Y427511D01*
X432347Y428082D01*
X431776Y427511D01*
X432347Y423512D02*
Y415513D01*
X441888Y423512D02*
Y414371D01*
X441316Y412657D01*
X440745Y412085D01*
X439602Y411514D01*
X437888D01*
X436746Y412085D01*
X441888Y421798D02*
X440745Y422940D01*
X439602Y423512D01*
X437888D01*
X436746Y422940D01*
X435603Y421798D01*
X435032Y420084D01*
Y418941D01*
X435603Y417227D01*
X436746Y416085D01*
X437888Y415513D01*
X439602D01*
X440745Y416085D01*
X441888Y417227D01*
X445087Y423512D02*
Y415513D01*
Y421226D02*
X446801Y422940D01*
X447943Y423512D01*
X449657D01*
X450800Y422940D01*
X451371Y421226D01*
Y415513D01*
X454514Y420084D02*
X461369D01*
Y421226D01*
X460798Y422369D01*
X460227Y422940D01*
X459084Y423512D01*
X457370D01*
X456227Y422940D01*
X455085Y421798D01*
X454514Y420084D01*
Y418941D01*
X455085Y417227D01*
X456227Y416085D01*
X457370Y415513D01*
X459084D01*
X460227Y416085D01*
X461369Y417227D01*
X470796Y427511D02*
Y415513D01*
Y421798D02*
X469653Y422940D01*
X468511Y423512D01*
X466797D01*
X465654Y422940D01*
X464511Y421798D01*
X463940Y420084D01*
Y418941D01*
X464511Y417227D01*
X465654Y416085D01*
X466797Y415513D01*
X468511D01*
X469653Y416085D01*
X470796Y417227D01*
X483422Y427511D02*
Y415513D01*
Y421798D02*
X484564Y422940D01*
X485707Y423512D01*
X487421D01*
X488563Y422940D01*
X489706Y421798D01*
X490277Y420084D01*
Y418941D01*
X489706Y417227D01*
X488563Y416085D01*
X487421Y415513D01*
X485707D01*
X484564Y416085D01*
X483422Y417227D01*
X493419Y423512D02*
X496847Y415513D01*
X500275Y423512D02*
X496847Y415513D01*
X495705Y413228D01*
X494562Y412085D01*
X493419Y411514D01*
X492848D01*
X355106Y401915D02*
X347679D01*
Y389917D01*
X355106D01*
X347679Y396202D02*
X352250D01*
X357106Y397915D02*
Y389917D01*
Y395630D02*
X358820Y397344D01*
X359962Y397915D01*
X361676D01*
X362819Y397344D01*
X363390Y395630D01*
Y389917D01*
Y395630D02*
X365104Y397344D01*
X366247Y397915D01*
X367961D01*
X369103Y397344D01*
X369674Y395630D01*
Y389917D01*
X373445Y401915D02*
Y389917D01*
Y396202D02*
X374588Y397344D01*
X375730Y397915D01*
X377444D01*
X378587Y397344D01*
X379729Y396202D01*
X380301Y394488D01*
Y393345D01*
X379729Y391631D01*
X378587Y390489D01*
X377444Y389917D01*
X375730D01*
X374588Y390489D01*
X373445Y391631D01*
X382872Y394488D02*
X389727D01*
Y395630D01*
X389156Y396773D01*
X388585Y397344D01*
X387442Y397915D01*
X385728D01*
X384586Y397344D01*
X383443Y396202D01*
X382872Y394488D01*
Y393345D01*
X383443Y391631D01*
X384586Y390489D01*
X385728Y389917D01*
X387442D01*
X388585Y390489D01*
X389727Y391631D01*
X399154Y401915D02*
Y389917D01*
Y396202D02*
X398011Y397344D01*
X396869Y397915D01*
X395155D01*
X394012Y397344D01*
X392870Y396202D01*
X392298Y394488D01*
Y393345D01*
X392870Y391631D01*
X394012Y390489D01*
X395155Y389917D01*
X396869D01*
X398011Y390489D01*
X399154Y391631D01*
X408638Y396202D02*
X408066Y397344D01*
X406352Y397915D01*
X404638D01*
X402925Y397344D01*
X402353Y396202D01*
X402925Y395059D01*
X404067Y394488D01*
X406924Y393916D01*
X408066Y393345D01*
X408638Y392202D01*
Y391631D01*
X408066Y390489D01*
X406352Y389917D01*
X404638D01*
X402925Y390489D01*
X402353Y391631D01*
X411723Y397915D02*
X415151Y389917D01*
X418578Y397915D02*
X415151Y389917D01*
X414008Y387632D01*
X412865Y386489D01*
X411723Y385918D01*
X411151D01*
X426862Y396202D02*
X426291Y397344D01*
X424577Y397915D01*
X422863D01*
X421149Y397344D01*
X420578Y396202D01*
X421149Y395059D01*
X422292Y394488D01*
X425148Y393916D01*
X426291Y393345D01*
X426862Y392202D01*
Y391631D01*
X426291Y390489D01*
X424577Y389917D01*
X422863D01*
X421149Y390489D01*
X420578Y391631D01*
X431090Y401915D02*
Y392202D01*
X431661Y390489D01*
X432804Y389917D01*
X433946D01*
X429376Y397915D02*
X433375D01*
X435660Y394488D02*
X442516D01*
Y395630D01*
X441945Y396773D01*
X441373Y397344D01*
X440231Y397915D01*
X438517D01*
X437374Y397344D01*
X436232Y396202D01*
X435660Y394488D01*
Y393345D01*
X436232Y391631D01*
X437374Y390489D01*
X438517Y389917D01*
X440231D01*
X441373Y390489D01*
X442516Y391631D01*
X445087Y397915D02*
Y389917D01*
Y395630D02*
X446801Y397344D01*
X447943Y397915D01*
X449657D01*
X450800Y397344D01*
X451371Y395630D01*
Y389917D01*
Y395630D02*
X453085Y397344D01*
X454228Y397915D01*
X455942D01*
X457084Y397344D01*
X457656Y395630D01*
Y389917D01*
X467711Y396202D02*
X467139Y397344D01*
X465425Y397915D01*
X463712D01*
X461998Y397344D01*
X461426Y396202D01*
X461998Y395059D01*
X463140Y394488D01*
X465997Y393916D01*
X467139Y393345D01*
X467711Y392202D01*
Y391631D01*
X467139Y390489D01*
X465425Y389917D01*
X463712D01*
X461998Y390489D01*
X461426Y391631D01*
X488792Y389917D02*
X484221Y401915D01*
X479651Y389917D01*
X481365Y393916D02*
X487078D01*
X498447Y396202D02*
X497304Y397344D01*
X496162Y397915D01*
X494448D01*
X493305Y397344D01*
X492163Y396202D01*
X491591Y394488D01*
Y393345D01*
X492163Y391631D01*
X493305Y390489D01*
X494448Y389917D01*
X496162D01*
X497304Y390489D01*
X498447Y391631D01*
X507874Y397915D02*
Y389917D01*
Y396202D02*
X506731Y397344D01*
X505588Y397915D01*
X503874D01*
X502732Y397344D01*
X501589Y396202D01*
X501018Y394488D01*
Y393345D01*
X501589Y391631D01*
X502732Y390489D01*
X503874Y389917D01*
X505588D01*
X506731Y390489D01*
X507874Y391631D01*
X517929Y401915D02*
Y389917D01*
Y396202D02*
X516786Y397344D01*
X515643Y397915D01*
X513929D01*
X512787Y397344D01*
X511644Y396202D01*
X511073Y394488D01*
Y393345D01*
X511644Y391631D01*
X512787Y390489D01*
X513929Y389917D01*
X515643D01*
X516786Y390489D01*
X517929Y391631D01*
X521128Y394488D02*
X527984D01*
Y395630D01*
X527412Y396773D01*
X526841Y397344D01*
X525698Y397915D01*
X523984D01*
X522842Y397344D01*
X521699Y396202D01*
X521128Y394488D01*
Y393345D01*
X521699Y391631D01*
X522842Y390489D01*
X523984Y389917D01*
X525698D01*
X526841Y390489D01*
X527984Y391631D01*
X530554Y397915D02*
Y389917D01*
Y395630D02*
X532268Y397344D01*
X533411Y397915D01*
X535125D01*
X536268Y397344D01*
X536839Y395630D01*
Y389917D01*
Y395630D02*
X538553Y397344D01*
X539695Y397915D01*
X541409D01*
X542552Y397344D01*
X543123Y395630D01*
Y389917D01*
X547465Y397915D02*
X550893Y389917D01*
X554321Y397915D02*
X550893Y389917D01*
X549750Y387632D01*
X548608Y386489D01*
X547465Y385918D01*
X546894D01*
D14*
X56270Y359270D02*
X57963D01*
X57116D01*
Y364348D01*
X56270Y363502D01*
X7270Y463270D02*
X8963D01*
X8116D01*
Y468348D01*
X7270Y467502D01*
X6270Y374270D02*
X7963D01*
X7116D01*
Y379348D01*
X6270Y378502D01*
D15*
X334994Y472990D02*
X315000D01*
Y443000D01*
X334994D01*
X315000Y457995D02*
X324997D01*
X344990Y443000D02*
Y462994D01*
X349989D01*
X354987Y457995D01*
Y443000D01*
Y457995D01*
X359985Y462994D01*
X364984Y457995D01*
Y443000D01*
X374981Y472990D02*
Y443000D01*
X389976D01*
X394974Y447998D01*
Y452997D01*
Y457995D01*
X389976Y462994D01*
X374981D01*
X419966Y443000D02*
X409969D01*
X404971Y447998D01*
Y457995D01*
X409969Y462994D01*
X419966D01*
X424964Y457995D01*
Y452997D01*
X404971D01*
X454955Y472990D02*
Y443000D01*
X439959D01*
X434961Y447998D01*
Y457995D01*
X439959Y462994D01*
X454955D01*
X494942Y472990D02*
Y447998D01*
X499940Y443000D01*
X509937D01*
X514935Y447998D01*
Y472990D01*
X524932Y443000D02*
Y462994D01*
X539927D01*
X544925Y457995D01*
Y443000D01*
X559921D02*
X569917D01*
X574916Y447998D01*
Y457995D01*
X569917Y462994D01*
X559921D01*
X554922Y457995D01*
Y447998D01*
X559921Y443000D01*
D16*
X643460Y527540D02*
Y530206D01*
Y528873D01*
X635463D01*
X636796Y527540D01*
X95540Y76540D02*
X98206D01*
X96873D01*
Y84537D01*
X95540Y83204D01*
X123140Y443460D02*
X125806D01*
X124473D01*
Y451457D01*
X123140Y450125D01*
X426460Y526540D02*
Y529206D01*
Y527873D01*
X418463D01*
X419795Y526540D01*
X500260Y4140D02*
Y6806D01*
Y5473D01*
X492263D01*
X493596Y4140D01*
X257540Y19540D02*
X260206D01*
X258873D01*
Y27537D01*
X257540Y26205D01*
X678540Y471540D02*
X681206D01*
X679873D01*
Y479537D01*
X678540Y478204D01*
D17*
X7167Y158499D02*
X5501D01*
X6334D01*
Y154334D01*
X5501Y153501D01*
X4668D01*
X3835Y154334D01*
X8833D02*
X9666Y153501D01*
X11332D01*
X12165Y154334D01*
Y157666D01*
X11332Y158499D01*
X9666D01*
X8833Y157666D01*
Y156833D01*
X9666Y156000D01*
X12165D01*
M02*
