G04*
G04 #@! TF.GenerationSoftware,Altium Limited,Altium Designer,20.0.13 (296)*
G04*
G04 Layer_Color=8421504*
%FSLAX44Y44*%
%MOMM*%
G71*
G01*
G75*
%ADD18R,1.9000X1.9000*%
%ADD19R,1.4000X1.6000*%
%ADD20R,1.3500X0.4000*%
%ADD21R,0.7000X1.3000*%
%ADD22R,1.5000X0.5500*%
%ADD23R,0.5500X1.5000*%
%ADD24R,0.6858X0.5588*%
%ADD25R,0.5588X0.6858*%
%ADD26R,0.8000X0.8000*%
%ADD27R,1.0000X0.5500*%
%ADD28R,1.3000X0.7000*%
%ADD29R,1.3000X0.9000*%
%ADD30R,0.9000X0.6000*%
%ADD31R,0.9000X1.3000*%
%ADD32R,1.6000X3.0000*%
%ADD33R,2.7000X2.0000*%
%ADD34R,0.5500X1.0000*%
%ADD35R,2.6000X2.5000*%
%ADD36R,3.5000X2.2000*%
%ADD37R,0.6000X2.2000*%
%ADD38R,2.5000X2.6000*%
D18*
X21995Y189000D02*
D03*
Y213000D02*
D03*
D19*
X46495Y169000D02*
D03*
Y233000D02*
D03*
D20*
X48745Y188000D02*
D03*
Y194500D02*
D03*
Y201000D02*
D03*
Y207500D02*
D03*
Y214000D02*
D03*
D21*
X279500Y414000D02*
D03*
X298500D02*
D03*
X283500Y89000D02*
D03*
X264500D02*
D03*
X280500Y393000D02*
D03*
X299500D02*
D03*
X92500Y348000D02*
D03*
X73500D02*
D03*
X112500Y211000D02*
D03*
X93500D02*
D03*
X86500Y191000D02*
D03*
X105500D02*
D03*
Y171000D02*
D03*
X86500D02*
D03*
X378500Y99000D02*
D03*
X359500D02*
D03*
X620500Y227000D02*
D03*
X601500D02*
D03*
X265500Y454000D02*
D03*
X246500D02*
D03*
X405500Y232000D02*
D03*
X424500D02*
D03*
X586500Y351000D02*
D03*
X567500D02*
D03*
X13500Y253000D02*
D03*
X32500D02*
D03*
X149500Y214000D02*
D03*
X130500D02*
D03*
D22*
X196000Y272000D02*
D03*
Y280000D02*
D03*
Y288000D02*
D03*
Y296000D02*
D03*
Y304000D02*
D03*
Y312000D02*
D03*
Y320000D02*
D03*
Y328000D02*
D03*
X112000D02*
D03*
Y320000D02*
D03*
Y312000D02*
D03*
Y304000D02*
D03*
Y296000D02*
D03*
Y288000D02*
D03*
Y280000D02*
D03*
Y272000D02*
D03*
D23*
X182000Y342000D02*
D03*
X174000D02*
D03*
X166000D02*
D03*
X158000D02*
D03*
X150000D02*
D03*
X142000D02*
D03*
X134000D02*
D03*
X126000D02*
D03*
Y258000D02*
D03*
X134000D02*
D03*
X142000D02*
D03*
X150000D02*
D03*
X158000D02*
D03*
X166000D02*
D03*
X174000D02*
D03*
X182000D02*
D03*
D24*
X12000Y269808D02*
D03*
Y294192D02*
D03*
D25*
X598808Y243000D02*
D03*
X623192D02*
D03*
D26*
X571000Y370000D02*
D03*
X587000D02*
D03*
X266000Y434000D02*
D03*
X250000D02*
D03*
X247000Y413000D02*
D03*
X263000D02*
D03*
Y393000D02*
D03*
X247000D02*
D03*
D27*
X205500Y158500D02*
D03*
Y149000D02*
D03*
Y139500D02*
D03*
X232500Y158500D02*
D03*
Y139500D02*
D03*
X203500Y435500D02*
D03*
Y454500D02*
D03*
X176500Y435500D02*
D03*
Y445000D02*
D03*
Y454500D02*
D03*
D28*
X255000Y158500D02*
D03*
Y139500D02*
D03*
X267000Y69500D02*
D03*
Y50500D02*
D03*
X172000Y384500D02*
D03*
Y403500D02*
D03*
X90000Y258500D02*
D03*
Y277500D02*
D03*
X218000Y263500D02*
D03*
Y282500D02*
D03*
X613000Y479000D02*
D03*
Y460000D02*
D03*
X592000Y459500D02*
D03*
Y478500D02*
D03*
X638000Y433500D02*
D03*
Y414500D02*
D03*
X670000Y207500D02*
D03*
Y188500D02*
D03*
X30000Y274000D02*
D03*
Y293000D02*
D03*
X670000Y223500D02*
D03*
Y242500D02*
D03*
X649000Y223000D02*
D03*
Y242000D02*
D03*
X328000Y85500D02*
D03*
Y66500D02*
D03*
Y47500D02*
D03*
Y66500D02*
D03*
D29*
X233000Y119500D02*
D03*
Y100500D02*
D03*
X219000Y197500D02*
D03*
Y178500D02*
D03*
X218000Y215500D02*
D03*
Y234500D02*
D03*
X196000Y215500D02*
D03*
Y234500D02*
D03*
X218000Y299500D02*
D03*
Y318500D02*
D03*
X173000Y217500D02*
D03*
Y236500D02*
D03*
X23000Y451500D02*
D03*
Y432500D02*
D03*
X637000Y472500D02*
D03*
Y453500D02*
D03*
X115000Y134500D02*
D03*
Y115500D02*
D03*
X210000Y100500D02*
D03*
Y119500D02*
D03*
X305000Y47500D02*
D03*
Y66500D02*
D03*
X354000D02*
D03*
Y47500D02*
D03*
X223000Y454500D02*
D03*
Y435500D02*
D03*
X650000Y206000D02*
D03*
Y187000D02*
D03*
X197000Y178500D02*
D03*
Y197500D02*
D03*
X442000Y58500D02*
D03*
Y77500D02*
D03*
D30*
X72000Y206500D02*
D03*
Y221500D02*
D03*
X71000Y179500D02*
D03*
Y194500D02*
D03*
D31*
X128500Y234000D02*
D03*
X147500D02*
D03*
X240500Y348000D02*
D03*
X259500D02*
D03*
Y241000D02*
D03*
X240500D02*
D03*
X403500Y51000D02*
D03*
X384500D02*
D03*
X23500Y522000D02*
D03*
X42500D02*
D03*
X463500Y77000D02*
D03*
X482500D02*
D03*
X466500Y233000D02*
D03*
X447500D02*
D03*
X260500Y484000D02*
D03*
X241500D02*
D03*
X417500Y79000D02*
D03*
X398500D02*
D03*
Y99000D02*
D03*
X417500D02*
D03*
X460000D02*
D03*
X441000D02*
D03*
X404500Y256000D02*
D03*
X423500D02*
D03*
X466500D02*
D03*
X447500D02*
D03*
X651500Y126000D02*
D03*
X670500D02*
D03*
X49500Y294000D02*
D03*
X68500D02*
D03*
X108500Y232000D02*
D03*
X89500D02*
D03*
X568500Y329000D02*
D03*
X587500D02*
D03*
X482500Y55000D02*
D03*
X463500D02*
D03*
D32*
X72000Y19500D02*
D03*
Y60500D02*
D03*
X74000Y98500D02*
D03*
Y139500D02*
D03*
D33*
X22000Y63000D02*
D03*
Y95000D02*
D03*
D34*
X651500Y143500D02*
D03*
X670500D02*
D03*
X651500Y170500D02*
D03*
X661000D02*
D03*
X670500D02*
D03*
X48500Y249500D02*
D03*
X58000D02*
D03*
X67500D02*
D03*
X48500Y276500D02*
D03*
X67500D02*
D03*
D35*
X250000Y318500D02*
D03*
Y269500D02*
D03*
D36*
X163000Y177000D02*
D03*
D37*
X188400Y115000D02*
D03*
X175700D02*
D03*
X163000D02*
D03*
X150300D02*
D03*
X137600D02*
D03*
D38*
X411500Y287000D02*
D03*
X460500D02*
D03*
M02*
