M48
;Layer_Color=9474304
;FILE_FORMAT=4:4
METRIC,LZ
;TYPE=PLATED
T1F00S00C0.3000
T3F00S00C0.6000
T4F00S00C1.0000
T5F00S00C1.1000
T6F00S00C1.5000
T7F00S00C3.2000
;TYPE=NON_PLATED
T8F00S00C3.2000
%
T01
X00091Y00111
Y00121
X00117Y00145
X00114Y00191
X00079429Y00181
X00083698Y00219
X00059247Y00218
X00121Y00211
X0014Y00224
X0015525Y0020125
X00163Y00206
X00173Y00208
X00177Y00197
X00195Y00207
X0020875Y0020825
X00233Y00198
X00256Y00188
X00304Y00173
X00321Y00172
X00305Y00088
X00291Y0007
X00317Y00056
X00368Y00067
X00388Y00086
X00401Y0011
X00406Y00061
X00419
X00442Y00043
X00464Y00041
X00473Y00093765
X00482Y00095
X00455Y0011
X0045Y00158
X00446Y00222
X00233Y0013
X0021
X00192Y00139
X00169Y00135
X00163Y00145
X00601Y00178
X00635Y00176
X00634Y00191
X0067025Y0015925
X00679Y00126
X0062Y00059
X00569Y00379
X0057Y00388
X00575Y00398
X00576Y00407
X00569Y00414
X00568Y00427
X0061Y00432
X00401Y00478
Y00383
X00314Y00407
X00313Y0042
X00322Y00422
X00279Y00485
X00217Y00481
X0021Y00445
X00236375Y00454
X00225Y004
X00197Y0042
X00172Y00417
X00122Y00415
X0015Y00275
X00182Y00288
X00217Y00249
X00273Y00246
X00304Y00227
X00329Y00255
X00395Y00256
X00478
X00277Y00343
X00215Y00339
X00101Y0037
X00086Y00366
Y0032
X00083Y00289
X000985Y00272
X001085Y002455
X00079Y00246
X0006Y00227
X00048Y00263
X00008Y00305
X00047Y00446
X00056Y00522
X0011Y00421
T03
X0029055Y001271
X0031585Y00127
X0034125
X0036665
X0039205
X0041745
X0044285
X0046825
X0049365
Y002032
X0046825
X0044285
X0041745
X0039205
X0036665
X0034125
X0031585
X0029045
X0051905
X0054445
X0056985
X0059525
X0062065
Y00127
X0059525
X0056985
X0054445
X0051905
T04
X001965Y000135
X002415
Y000785
X001965
X006075Y002625
Y003075
X006725
Y002625
T05
X001162Y00088
X001416
X00167
X002794Y00023
X003048
X003302
X003556
X00381
X004064
X004318
X004572
X004988
X005242
X005496
X00575
X006004
X006258
X00662Y004182
Y004436
Y00469
X00635Y00508
X006096
X005842
X005588
X005334
X00508
X004826
X004572
X0041656
X0039116
X0036576
X0034036
X0031496
X0028956
X0026416
X0023876
X0021336
X0018796
X00146Y00446
Y004206
Y003952
Y003698
X000762Y0038608
X000508
X000254
Y0041148
X000508
X000762
Y0047244
Y0049784
X000508
X000254
Y0047244
X000508
Y00342
Y003166
X000254
Y00342
T06
X00021Y00026
X00022Y00134
T07
X001397Y000254
X006604Y000762
Y003556
T08
X001524Y00508
M30
